<svg xmlns="http://www.w3.org/2000/svg" xmlns:xlink="http://www.w3.org/1999/xlink" contentStyleType="text/css" height="553px" preserveAspectRatio="none" style="width:1706px;height:553px;background:#FFFFFF;" version="1.1" viewBox="0 0 1706 553" width="1706px" zoomAndPan="magnify"><title>UC-05 &#8212; Prepare the candidate for the interview (FR-36, FR-39)</title><defs/><g><text fill="#000000" font-family="sans-serif" font-size="14" font-weight="bold" lengthAdjust="spacing" textLength="504.041" x="600.2124" y="27.9951">UC-05 &#8212; Prepare the candidate for the interview (FR-36, FR-39)</text><rect fill="#FFFFFF" height="305.4609" style="stroke:#181818;stroke-width:1.0;" width="10" x="418.3887" y="149.7266"/><rect fill="#FFFFFF" height="247.1953" style="stroke:#181818;stroke-width:1.0;" width="10" x="787.77" y="178.8594"/><line style="stroke:#181818;stroke-width:0.5;stroke-dasharray:5.0,5.0;" x1="40" x2="40" y1="118.5938" y2="473.1875"/><line style="stroke:#181818;stroke-width:0.5;stroke-dasharray:5.0,5.0;" x1="422.71" x2="422.71" y1="118.5938" y2="473.1875"/><line style="stroke:#181818;stroke-width:0.5;stroke-dasharray:5.0,5.0;" x1="791.8071" x2="791.8071" y1="118.5938" y2="473.1875"/><line style="stroke:#181818;stroke-width:0.5;stroke-dasharray:5.0,5.0;" x1="1261.6553" x2="1261.6553" y1="118.5938" y2="473.1875"/><line style="stroke:#181818;stroke-width:0.5;stroke-dasharray:5.0,5.0;" x1="1469.0771" x2="1469.0771" y1="118.5938" y2="473.1875"/><line style="stroke:#181818;stroke-width:0.5;stroke-dasharray:5.0,5.0;" x1="1628.4463" x2="1628.4463" y1="118.5938" y2="473.1875"/><text fill="#000000" font-family="sans-serif" font-size="14" lengthAdjust="spacing" textLength="64.415" x="5" y="115.292">Recruiter</text><ellipse cx="40.2075" cy="50.7969" fill="#E2E2F0" rx="8" ry="8" style="stroke:#181818;stroke-width:0.5;"/><path d="M40.2075,58.7969 L40.2075,85.7969 M27.2075,66.7969 L53.2075,66.7969 M40.2075,85.7969 L27.2075,100.7969 M40.2075,85.7969 L53.2075,100.7969 " fill="none" style="stroke:#181818;stroke-width:0.5;"/><text fill="#000000" font-family="sans-serif" font-size="14" lengthAdjust="spacing" textLength="64.415" x="5" y="485.1826">Recruiter</text><ellipse cx="40.2075" cy="496.9844" fill="#E2E2F0" rx="8" ry="8" style="stroke:#181818;stroke-width:0.5;"/><path d="M40.2075,504.9844 L40.2075,531.9844 M27.2075,512.9844 L53.2075,512.9844 M40.2075,531.9844 L27.2075,546.9844 M40.2075,531.9844 L53.2075,546.9844 " fill="none" style="stroke:#181818;stroke-width:0.5;"/><rect fill="#E2E2F0" height="30.2969" rx="2.5" ry="2.5" style="stroke:#181818;stroke-width:0.5;" width="139.3574" x="353.71" y="87.2969"/><text fill="#000000" font-family="sans-serif" font-size="14" lengthAdjust="spacing" textLength="125.3574" x="360.71" y="107.292">MatchAiController</text><rect fill="#E2E2F0" height="30.2969" rx="2.5" ry="2.5" style="stroke:#181818;stroke-width:0.5;" width="139.3574" x="353.71" y="472.1875"/><text fill="#000000" font-family="sans-serif" font-size="14" lengthAdjust="spacing" textLength="125.3574" x="360.71" y="492.1826">MatchAiController</text><rect fill="#E2E2F0" height="30.2969" rx="2.5" ry="2.5" style="stroke:#181818;stroke-width:0.5;" width="121.9258" x="731.8071" y="87.2969"/><text fill="#000000" font-family="sans-serif" font-size="14" lengthAdjust="spacing" textLength="107.9258" x="738.8071" y="107.292">MatchAiService</text><rect fill="#E2E2F0" height="30.2969" rx="2.5" ry="2.5" style="stroke:#181818;stroke-width:0.5;" width="121.9258" x="731.8071" y="472.1875"/><text fill="#000000" font-family="sans-serif" font-size="14" lengthAdjust="spacing" textLength="107.9258" x="738.8071" y="492.1826">MatchAiService</text><rect fill="#E2E2F0" height="30.2969" rx="2.5" ry="2.5" style="stroke:#181818;stroke-width:0.5;" width="239.4219" x="1142.6553" y="87.2969"/><text fill="#000000" font-family="sans-serif" font-size="14" lengthAdjust="spacing" textLength="225.4219" x="1149.6553" y="107.292">InterviewObservationRepository</text><rect fill="#E2E2F0" height="30.2969" rx="2.5" ry="2.5" style="stroke:#181818;stroke-width:0.5;" width="239.4219" x="1142.6553" y="472.1875"/><text fill="#000000" font-family="sans-serif" font-size="14" lengthAdjust="spacing" textLength="225.4219" x="1149.6553" y="492.1826">InterviewObservationRepository</text><rect fill="#E2E2F0" height="46.5938" rx="2.5" ry="2.5" style="stroke:#181818;stroke-width:0.5;" width="154.3691" x="1392.0771" y="71"/><text fill="#000000" font-family="sans-serif" font-size="14" lengthAdjust="spacing" textLength="140.3691" x="1399.0771" y="90.9951">company-archetype</text><text fill="#000000" font-family="sans-serif" font-size="14" lengthAdjust="spacing" textLength="63.3555" x="1437.584" y="107.292">(domain)</text><rect fill="#E2E2F0" height="46.5938" rx="2.5" ry="2.5" style="stroke:#181818;stroke-width:0.5;" width="154.3691" x="1392.0771" y="472.1875"/><text fill="#000000" font-family="sans-serif" font-size="14" lengthAdjust="spacing" textLength="140.3691" x="1399.0771" y="492.1826">company-archetype</text><text fill="#000000" font-family="sans-serif" font-size="14" lengthAdjust="spacing" textLength="63.3555" x="1437.584" y="508.4795">(domain)</text><rect fill="#E2E2F0" height="30.2969" rx="2.5" ry="2.5" style="stroke:#181818;stroke-width:0.5;" width="144.0195" x="1556.4463" y="87.2969"/><text fill="#000000" font-family="sans-serif" font-size="14" lengthAdjust="spacing" textLength="130.0195" x="1563.4463" y="107.292">LlmFeatureRunner</text><rect fill="#E2E2F0" height="30.2969" rx="2.5" ry="2.5" style="stroke:#181818;stroke-width:0.5;" width="144.0195" x="1556.4463" y="472.1875"/><text fill="#000000" font-family="sans-serif" font-size="14" lengthAdjust="spacing" textLength="130.0195" x="1563.4463" y="492.1826">LlmFeatureRunner</text><rect fill="#FFFFFF" height="305.4609" style="stroke:#181818;stroke-width:1.0;" width="10" x="418.3887" y="149.7266"/><rect fill="#FFFFFF" height="247.1953" style="stroke:#181818;stroke-width:1.0;" width="10" x="787.77" y="178.8594"/><polygon fill="#181818" points="406.3887,145.7266,416.3887,149.7266,406.3887,153.7266,410.3887,149.7266" style="stroke:#181818;stroke-width:1.0;"/><line style="stroke:#181818;stroke-width:1.0;" x1="40.2075" x2="412.3887" y1="149.7266" y2="149.7266"/><text fill="#000000" font-family="sans-serif" font-size="13" font-weight="bold" lengthAdjust="spacing" textLength="9.0454" x="47.2075" y="144.6606">1</text><text fill="#000000" font-family="sans-serif" font-size="13" lengthAdjust="spacing" textLength="237.4658" x="60.2529" y="144.6606">POST /mandates/:id/talents/:tid/prep</text><polygon fill="#181818" points="775.77,174.8594,785.77,178.8594,775.77,182.8594,779.77,178.8594" style="stroke:#181818;stroke-width:1.0;"/><line style="stroke:#181818;stroke-width:1.0;" x1="428.3887" x2="781.77" y1="178.8594" y2="178.8594"/><text fill="#000000" font-family="sans-serif" font-size="13" font-weight="bold" lengthAdjust="spacing" textLength="9.0454" x="435.3887" y="173.7935">2</text><text fill="#000000" font-family="sans-serif" font-size="13" lengthAdjust="spacing" textLength="327.3359" x="448.4341" y="173.7935">candidatePrep(scope, user, tid, mandate, jobText)</text><polygon fill="#181818" points="1250.3662,203.9922,1260.3662,207.9922,1250.3662,211.9922,1254.3662,207.9922" style="stroke:#181818;stroke-width:1.0;"/><line style="stroke:#181818;stroke-width:1.0;" x1="797.77" x2="1256.3662" y1="207.9922" y2="207.9922"/><text fill="#000000" font-family="sans-serif" font-size="13" font-weight="bold" lengthAdjust="spacing" textLength="9.0454" x="804.77" y="202.9263">3</text><text fill="#000000" font-family="sans-serif" font-size="13" lengthAdjust="spacing" textLength="242.3789" x="817.8154" y="202.9263">listForCompany(scope, companyKey)</text><polygon fill="#181818" points="808.77,233.125,798.77,237.125,808.77,241.125,804.77,237.125" style="stroke:#181818;stroke-width:1.0;"/><line style="stroke:#181818;stroke-width:1.0;stroke-dasharray:2.0,2.0;" x1="802.77" x2="1261.3662" y1="237.125" y2="237.125"/><text fill="#000000" font-family="sans-serif" font-size="13" font-weight="bold" lengthAdjust="spacing" textLength="9.0454" x="814.77" y="232.0591">4</text><text fill="#000000" font-family="sans-serif" font-size="13" lengthAdjust="spacing" textLength="152.2358" x="827.8154" y="232.0591">first-party observations</text><polygon fill="#181818" points="1457.2617,262.2578,1467.2617,266.2578,1457.2617,270.2578,1461.2617,266.2578" style="stroke:#181818;stroke-width:1.0;"/><line style="stroke:#181818;stroke-width:1.0;" x1="797.77" x2="1463.2617" y1="266.2578" y2="266.2578"/><text fill="#000000" font-family="sans-serif" font-size="13" font-weight="bold" lengthAdjust="spacing" textLength="9.0454" x="804.77" y="261.1919">5</text><text fill="#000000" font-family="sans-serif" font-size="13" lengthAdjust="spacing" textLength="297.1338" x="817.8154" y="261.1919">companyInterviewProfile(client, role, jobText)</text><line style="stroke:#181818;stroke-width:1.0;" x1="797.77" x2="839.77" y1="310.5234" y2="310.5234"/><line style="stroke:#181818;stroke-width:1.0;" x1="839.77" x2="839.77" y1="310.5234" y2="323.5234"/><line style="stroke:#181818;stroke-width:1.0;" x1="798.77" x2="839.77" y1="323.5234" y2="323.5234"/><polygon fill="#181818" points="808.77,319.5234,798.77,323.5234,808.77,327.5234,804.77,323.5234" style="stroke:#181818;stroke-width:1.0;"/><text fill="#000000" font-family="sans-serif" font-size="13" font-weight="bold" lengthAdjust="spacing" textLength="9.0454" x="804.77" y="297.8911">6</text><text fill="#000000" font-family="sans-serif" font-size="13" lengthAdjust="spacing" textLength="266.1191" x="817.8154" y="290.3247">applyObserved(archetype, observations)</text><text fill="#000000" font-family="sans-serif" font-size="13" lengthAdjust="spacing" textLength="422.5508" x="817.8154" y="305.4575">+ extract Auflagen + requirement coverage (deterministic base)</text><polygon fill="#181818" points="1616.4561,363.7891,1626.4561,367.7891,1616.4561,371.7891,1620.4561,367.7891" style="stroke:#181818;stroke-width:1.0;"/><line style="stroke:#181818;stroke-width:1.0;" x1="797.77" x2="1622.4561" y1="367.7891" y2="367.7891"/><text fill="#000000" font-family="sans-serif" font-size="13" font-weight="bold" lengthAdjust="spacing" textLength="9.0454" x="804.77" y="355.1567">7</text><text fill="#000000" font-family="sans-serif" font-size="13" lengthAdjust="spacing" textLength="345.1665" x="817.8154" y="347.5903">runFeature('candidatePrep', prompt(base.strengths),</text><text fill="#000000" font-family="sans-serif" font-size="13" lengthAdjust="spacing" textLength="381.1704" x="817.8154" y="362.7231">{ schema, normalize: mergePrep(base,&#183;), fallback: base })</text><polygon fill="#181818" points="808.77,392.9219,798.77,396.9219,808.77,400.9219,804.77,396.9219" style="stroke:#181818;stroke-width:1.0;"/><line style="stroke:#181818;stroke-width:1.0;stroke-dasharray:2.0,2.0;" x1="802.77" x2="1627.4561" y1="396.9219" y2="396.9219"/><text fill="#000000" font-family="sans-serif" font-size="13" font-weight="bold" lengthAdjust="spacing" textLength="9.0454" x="814.77" y="391.856">8</text><text fill="#000000" font-family="sans-serif" font-size="13" lengthAdjust="spacing" textLength="234.7998" x="827.8154" y="391.856">refined coaching narrative (or base)</text><polygon fill="#181818" points="439.3887,422.0547,429.3887,426.0547,439.3887,430.0547,435.3887,426.0547" style="stroke:#181818;stroke-width:1.0;"/><line style="stroke:#181818;stroke-width:1.0;stroke-dasharray:2.0,2.0;" x1="433.3887" x2="791.77" y1="426.0547" y2="426.0547"/><text fill="#000000" font-family="sans-serif" font-size="13" font-weight="bold" lengthAdjust="spacing" textLength="9.0454" x="445.3887" y="420.9888">9</text><text fill="#000000" font-family="sans-serif" font-size="13" lengthAdjust="spacing" textLength="298.3906" x="458.4341" y="420.9888">{ gaps, Auflagen, STAR, questions, provider }</text><polygon fill="#181818" points="51.2075,451.1875,41.2075,455.1875,51.2075,459.1875,47.2075,455.1875" style="stroke:#181818;stroke-width:1.0;"/><line style="stroke:#181818;stroke-width:1.0;stroke-dasharray:2.0,2.0;" x1="45.2075" x2="422.3887" y1="455.1875" y2="455.1875"/><text fill="#000000" font-family="sans-serif" font-size="13" font-weight="bold" lengthAdjust="spacing" textLength="18.0908" x="57.2075" y="450.1216">10</text><text fill="#000000" font-family="sans-serif" font-size="13" lengthAdjust="spacing" textLength="332.0903" x="79.2983" y="450.1216">prep kit (observed knowledge overrides the guess)</text><!--SRC=[RLFDZjCm4BxdAKPxsKJhiaW897f0gYgjX01jrPPRBwupROSwTdRiT2chbNW8teKxZyAJC4xIT2jngklu-nqxKhG8NwUZrs_XxyzVC6EiDIF47OBHhgHIHuIDvtQ7N4G-43v2VZSVlNcd8FsyBx8ixCa9K5SGThhqZ-IsiD4sOAQRw5rJhP4pRQ8GpT5mGqAK2I2IeLgx25zqDBi9JRsBxAr51XrW6jd-xzGYkJ2OZYmEvkB4nvF5-tMGXOxatHnh7qYqZmaX7ouGLyPNiZYED9iTncEDAvUNljBaYgi4cCZ-1UAphUvGnuPntZZNMUrMMJQaWz67rZ-CONQ_MC9j9NLAcU5sJELjr1PTb7MKFxMKdigXGogx3TqYXK7Y2S4mYJIUF1XVeu96yYaGl8AUMi4tlrxYzrYSsL8_YKIu9BXmMGhnplEq2tqYwpluXCSYI-T6W_Q6ECHHYdy4V-uqd5XJEybYHp3KFsE_8OkviIH15SXGN_hhmPs4hcjxxEQ5PJwCGLte5Ijt0u9bYGQJPcFr5XtS0ED3GuoLg8Y90xBiGrwY-AZ8ILWoiDO11yr-PcFWnlLZpAyl6hvMKBFaYNa2lWgHqMtZBXHgvPuWYBrAAt2UAstf1uwXGjvsiqa0zUTteTBjjsjjzkDM7PwBh1S-Lyku8OUbsDPcbrwCqyoIzY01vA6yS7s-Iq-mrNLGGmCA5il9NC53Ww7jgVL-e5AKdhCIBov2TwjI1yCj7KEwVR2dA9hz263l_AF5KefCXRAGXVRzRqKa52zP4-C_]--></g></svg>