<svg xmlns="http://www.w3.org/2000/svg" xmlns:xlink="http://www.w3.org/1999/xlink" contentStyleType="text/css" height="668px" preserveAspectRatio="none" style="width:1228px;height:668px;background:#FFFFFF;" version="1.1" viewBox="0 0 1228 668" width="1228px" zoomAndPan="magnify"><title>UC-10 &#8212; Search external job boards (FR-50, FR-51)</title><defs/><g><text fill="#000000" font-family="sans-serif" font-size="14" font-weight="bold" lengthAdjust="spacing" textLength="403.252" x="414.2312" y="27.9951">UC-10 &#8212; Search external job boards (FR-50, FR-51)</text><rect fill="#FFFFFF" height="298.3281" style="stroke:#181818;stroke-width:1.0;" width="10" x="258.1514" y="166.0234"/><rect fill="#FFFFFF" height="240.0625" style="stroke:#181818;stroke-width:1.0;" width="10" x="398.4946" y="195.1563"/><rect fill="none" height="125.6641" style="stroke:#000000;stroke-width:1.5;" width="712.2544" x="325.6309" y="239.2891"/><rect fill="none" height="75.3984" style="stroke:#000000;stroke-width:1.5;" width="1212.7144" x="10" y="479.3516"/><line style="stroke:#181818;stroke-width:0.5;stroke-dasharray:5.0,5.0;" x1="59" x2="59" y1="134.8906" y2="571.75"/><line style="stroke:#181818;stroke-width:0.5;stroke-dasharray:5.0,5.0;" x1="262.7744" x2="262.7744" y1="134.8906" y2="571.75"/><line style="stroke:#181818;stroke-width:0.5;stroke-dasharray:5.0,5.0;" x1="402.6309" x2="402.6309" y1="134.8906" y2="571.75"/><line style="stroke:#181818;stroke-width:0.5;stroke-dasharray:5.0,5.0;" x1="740.3413" x2="740.3413" y1="134.8906" y2="571.75"/><line style="stroke:#181818;stroke-width:0.5;stroke-dasharray:5.0,5.0;" x1="959.4194" x2="959.4194" y1="134.8906" y2="571.75"/><line style="stroke:#181818;stroke-width:0.5;stroke-dasharray:5.0,5.0;" x1="1124.8853" x2="1124.8853" y1="134.8906" y2="571.75"/><text fill="#000000" font-family="sans-serif" font-size="14" lengthAdjust="spacing" textLength="73.582" x="20" y="115.292">Recruiter /</text><text fill="#000000" font-family="sans-serif" font-size="14" lengthAdjust="spacing" textLength="65.7686" x="23.9067" y="131.5889">Applicant</text><ellipse cx="59.791" cy="50.7969" fill="#E2E2F0" rx="8" ry="8" style="stroke:#181818;stroke-width:0.5;"/><path d="M59.791,58.7969 L59.791,85.7969 M46.791,66.7969 L72.791,66.7969 M59.791,85.7969 L46.791,100.7969 M59.791,85.7969 L72.791,100.7969 " fill="none" style="stroke:#181818;stroke-width:0.5;"/><text fill="#000000" font-family="sans-serif" font-size="14" lengthAdjust="spacing" textLength="73.582" x="20" y="583.7451">Recruiter /</text><text fill="#000000" font-family="sans-serif" font-size="14" lengthAdjust="spacing" textLength="65.7686" x="23.9067" y="600.042">Applicant</text><ellipse cx="59.791" cy="611.8438" fill="#E2E2F0" rx="8" ry="8" style="stroke:#181818;stroke-width:0.5;"/><path d="M59.791,619.8438 L59.791,646.8438 M46.791,627.8438 L72.791,627.8438 M59.791,646.8438 L46.791,661.8438 M59.791,646.8438 L72.791,661.8438 " fill="none" style="stroke:#181818;stroke-width:0.5;"/><rect fill="#E2E2F0" height="30.2969" rx="2.5" ry="2.5" style="stroke:#181818;stroke-width:0.5;" width="104.7539" x="210.7744" y="103.5938"/><text fill="#000000" font-family="sans-serif" font-size="14" lengthAdjust="spacing" textLength="90.7539" x="217.7744" y="123.5889">JobController</text><rect fill="#E2E2F0" height="30.2969" rx="2.5" ry="2.5" style="stroke:#181818;stroke-width:0.5;" width="104.7539" x="210.7744" y="570.75"/><text fill="#000000" font-family="sans-serif" font-size="14" lengthAdjust="spacing" textLength="90.7539" x="217.7744" y="590.7451">JobController</text><rect fill="#E2E2F0" height="30.2969" rx="2.5" ry="2.5" style="stroke:#181818;stroke-width:0.5;" width="135.7275" x="335.6309" y="103.5938"/><text fill="#000000" font-family="sans-serif" font-size="14" lengthAdjust="spacing" textLength="121.7275" x="342.6309" y="123.5889">JobSearchService</text><rect fill="#E2E2F0" height="30.2969" rx="2.5" ry="2.5" style="stroke:#181818;stroke-width:0.5;" width="135.7275" x="335.6309" y="570.75"/><text fill="#000000" font-family="sans-serif" font-size="14" lengthAdjust="spacing" textLength="121.7275" x="342.6309" y="590.7451">JobSearchService</text><rect fill="#E2E2F0" height="46.5938" rx="2.5" ry="2.5" style="stroke:#181818;stroke-width:0.5;" width="282.0781" x="599.3413" y="87.2969"/><text fill="#000000" font-family="sans-serif" font-size="14" lengthAdjust="spacing" textLength="147.0615" x="666.8496" y="107.292">composite JobSource</text><text fill="#000000" font-family="sans-serif" font-size="14" lengthAdjust="spacing" textLength="268.0781" x="606.3413" y="123.5889">(Arbeitnow &#183; Bundesagentur &#183; Adzuna)</text><rect fill="#E2E2F0" height="46.5938" rx="2.5" ry="2.5" style="stroke:#181818;stroke-width:0.5;" width="282.0781" x="599.3413" y="570.75"/><text fill="#000000" font-family="sans-serif" font-size="14" lengthAdjust="spacing" textLength="147.0615" x="666.8496" y="590.7451">composite JobSource</text><text fill="#000000" font-family="sans-serif" font-size="14" lengthAdjust="spacing" textLength="268.0781" x="606.3413" y="607.042">(Arbeitnow &#183; Bundesagentur &#183; Adzuna)</text><rect fill="#E2E2F0" height="46.5938" rx="2.5" ry="2.5" style="stroke:#181818;stroke-width:0.5;" width="136.4658" x="891.4194" y="87.2969"/><text fill="#000000" font-family="sans-serif" font-size="14" lengthAdjust="spacing" textLength="122.4658" x="898.4194" y="107.292">SampleJobSource</text><text fill="#000000" font-family="sans-serif" font-size="14" lengthAdjust="spacing" textLength="113.6201" x="902.8423" y="123.5889">(offline fallback)</text><rect fill="#E2E2F0" height="46.5938" rx="2.5" ry="2.5" style="stroke:#181818;stroke-width:0.5;" width="136.4658" x="891.4194" y="570.75"/><text fill="#000000" font-family="sans-serif" font-size="14" lengthAdjust="spacing" textLength="122.4658" x="898.4194" y="590.7451">SampleJobSource</text><text fill="#000000" font-family="sans-serif" font-size="14" lengthAdjust="spacing" textLength="113.6201" x="902.8423" y="607.042">(offline fallback)</text><rect fill="#E2E2F0" height="30.2969" rx="2.5" ry="2.5" style="stroke:#181818;stroke-width:0.5;" width="174.8291" x="1037.8853" y="103.5938"/><text fill="#000000" font-family="sans-serif" font-size="14" lengthAdjust="spacing" textLength="160.8291" x="1044.8853" y="123.5889">SavedSearchController</text><rect fill="#E2E2F0" height="30.2969" rx="2.5" ry="2.5" style="stroke:#181818;stroke-width:0.5;" width="174.8291" x="1037.8853" y="570.75"/><text fill="#000000" font-family="sans-serif" font-size="14" lengthAdjust="spacing" textLength="160.8291" x="1044.8853" y="590.7451">SavedSearchController</text><rect fill="#FFFFFF" height="298.3281" style="stroke:#181818;stroke-width:1.0;" width="10" x="258.1514" y="166.0234"/><rect fill="#FFFFFF" height="240.0625" style="stroke:#181818;stroke-width:1.0;" width="10" x="398.4946" y="195.1563"/><polygon fill="#181818" points="246.1514,162.0234,256.1514,166.0234,246.1514,170.0234,250.1514,166.0234" style="stroke:#181818;stroke-width:1.0;"/><line style="stroke:#181818;stroke-width:1.0;" x1="59.791" x2="252.1514" y1="166.0234" y2="166.0234"/><text fill="#000000" font-family="sans-serif" font-size="13" font-weight="bold" lengthAdjust="spacing" textLength="9.0454" x="66.791" y="160.9575">1</text><text fill="#000000" font-family="sans-serif" font-size="13" lengthAdjust="spacing" textLength="166.3149" x="79.8364" y="160.9575">GET /jobs?q=&#8230;&amp;skills=&#8230;</text><polygon fill="#181818" points="386.4946,191.1563,396.4946,195.1563,386.4946,199.1563,390.4946,195.1563" style="stroke:#181818;stroke-width:1.0;"/><line style="stroke:#181818;stroke-width:1.0;" x1="268.1514" x2="392.4946" y1="195.1563" y2="195.1563"/><text fill="#000000" font-family="sans-serif" font-size="13" font-weight="bold" lengthAdjust="spacing" textLength="9.0454" x="275.1514" y="190.0903">2</text><text fill="#000000" font-family="sans-serif" font-size="13" lengthAdjust="spacing" textLength="91.1396" x="288.1968" y="190.0903">search(query)</text><polygon fill="#181818" points="728.3804,220.2891,738.3804,224.2891,728.3804,228.2891,732.3804,224.2891" style="stroke:#181818;stroke-width:1.0;"/><line style="stroke:#181818;stroke-width:1.0;" x1="408.4946" x2="734.3804" y1="224.2891" y2="224.2891"/><text fill="#000000" font-family="sans-serif" font-size="13" font-weight="bold" lengthAdjust="spacing" textLength="9.0454" x="415.4946" y="219.2231">3</text><text fill="#000000" font-family="sans-serif" font-size="13" lengthAdjust="spacing" textLength="127.8228" x="428.54" y="219.2231">fetch across boards</text><path d="M325.6309,239.2891 L390.0737,239.2891 L390.0737,246.4219 L380.0737,256.4219 L325.6309,256.4219 L325.6309,239.2891 " fill="#EEEEEE" style="stroke:#000000;stroke-width:1.5;"/><rect fill="none" height="125.6641" style="stroke:#000000;stroke-width:1.5;" width="712.2544" x="325.6309" y="239.2891"/><text fill="#000000" font-family="sans-serif" font-size="13" font-weight="bold" lengthAdjust="spacing" textLength="19.4429" x="340.6309" y="252.356">alt</text><text fill="#000000" font-family="sans-serif" font-size="11" font-weight="bold" lengthAdjust="spacing" textLength="92.7749" x="405.0737" y="251.4995">[a source fails]</text><line style="stroke:#181818;stroke-width:2.0;" x1="415.4946" x2="425.4946" y1="272.5547" y2="282.5547"/><line style="stroke:#181818;stroke-width:2.0;" x1="415.4946" x2="425.4946" y1="282.5547" y2="272.5547"/><line style="stroke:#181818;stroke-width:1.0;stroke-dasharray:2.0,2.0;" x1="420.4946" x2="739.3804" y1="277.5547" y2="277.5547"/><text fill="#000000" font-family="sans-serif" font-size="13" font-weight="bold" lengthAdjust="spacing" textLength="9.0454" x="425.4946" y="272.4888">4</text><text fill="#000000" font-family="sans-serif" font-size="13" lengthAdjust="spacing" textLength="151.563" x="438.54" y="272.4888">error (one board down)</text><path d="M413,290.5547 L413,330.5547 L728,330.5547 L728,300.5547 L718,290.5547 L413,290.5547 " fill="#FEFFDD" style="stroke:#181818;stroke-width:0.5;"/><path d="M718,290.5547 L718,300.5547 L728,300.5547 L718,290.5547 " fill="#FEFFDD" style="stroke:#181818;stroke-width:0.5;"/><text fill="#000000" font-family="sans-serif" font-size="13" lengthAdjust="spacing" textLength="252.3828" x="419" y="307.6216">one failing source is skipped, not fatal;</text><text fill="#000000" font-family="sans-serif" font-size="13" lengthAdjust="spacing" textLength="294.7026" x="419" y="322.7544">if all fail, the offline sample answers honestly</text><polygon fill="#181818" points="947.6523,352.9531,957.6523,356.9531,947.6523,360.9531,951.6523,356.9531" style="stroke:#181818;stroke-width:1.0;"/><line style="stroke:#181818;stroke-width:1.0;" x1="408.4946" x2="953.6523" y1="356.9531" y2="356.9531"/><text fill="#000000" font-family="sans-serif" font-size="13" font-weight="bold" lengthAdjust="spacing" textLength="9.0454" x="415.4946" y="351.8872">5</text><text fill="#000000" font-family="sans-serif" font-size="13" lengthAdjust="spacing" textLength="95.2339" x="428.54" y="351.8872">sample results</text><line style="stroke:#181818;stroke-width:1.0;" x1="408.4946" x2="450.4946" y1="393.0859" y2="393.0859"/><line style="stroke:#181818;stroke-width:1.0;" x1="450.4946" x2="450.4946" y1="393.0859" y2="406.0859"/><line style="stroke:#181818;stroke-width:1.0;" x1="409.4946" x2="450.4946" y1="406.0859" y2="406.0859"/><polygon fill="#181818" points="419.4946,402.0859,409.4946,406.0859,419.4946,410.0859,415.4946,406.0859" style="stroke:#181818;stroke-width:1.0;"/><text fill="#000000" font-family="sans-serif" font-size="13" font-weight="bold" lengthAdjust="spacing" textLength="9.0454" x="415.4946" y="388.02">6</text><text fill="#000000" font-family="sans-serif" font-size="13" lengthAdjust="spacing" textLength="289.8403" x="428.54" y="388.02">two-tier rank (strong fits first, stretch below)</text><polygon fill="#181818" points="279.1514,431.2188,269.1514,435.2188,279.1514,439.2188,275.1514,435.2188" style="stroke:#181818;stroke-width:1.0;"/><line style="stroke:#181818;stroke-width:1.0;stroke-dasharray:2.0,2.0;" x1="273.1514" x2="402.4946" y1="435.2188" y2="435.2188"/><text fill="#000000" font-family="sans-serif" font-size="13" font-weight="bold" lengthAdjust="spacing" textLength="9.0454" x="285.1514" y="430.1528">7</text><text fill="#000000" font-family="sans-serif" font-size="13" lengthAdjust="spacing" textLength="93.2979" x="298.1968" y="430.1528">ranked results</text><polygon fill="#181818" points="70.791,460.3516,60.791,464.3516,70.791,468.3516,66.791,464.3516" style="stroke:#181818;stroke-width:1.0;"/><line style="stroke:#181818;stroke-width:1.0;stroke-dasharray:2.0,2.0;" x1="64.791" x2="262.1514" y1="464.3516" y2="464.3516"/><text fill="#000000" font-family="sans-serif" font-size="13" font-weight="bold" lengthAdjust="spacing" textLength="9.0454" x="76.791" y="459.2856">8</text><text fill="#000000" font-family="sans-serif" font-size="13" lengthAdjust="spacing" textLength="43.8369" x="89.8364" y="459.2856">results</text><path d="M10,479.3516 L79.4512,479.3516 L79.4512,486.4844 L69.4512,496.4844 L10,496.4844 L10,479.3516 " fill="#EEEEEE" style="stroke:#000000;stroke-width:1.5;"/><rect fill="none" height="75.3984" style="stroke:#000000;stroke-width:1.5;" width="1212.7144" x="10" y="479.3516"/><text fill="#000000" font-family="sans-serif" font-size="13" font-weight="bold" lengthAdjust="spacing" textLength="24.4512" x="25" y="492.4185">opt</text><text fill="#000000" font-family="sans-serif" font-size="11" font-weight="bold" lengthAdjust="spacing" textLength="108.0718" x="94.4512" y="491.562">[save the search]</text><polygon fill="#181818" points="1113.2998,513.6172,1123.2998,517.6172,1113.2998,521.6172,1117.2998,517.6172" style="stroke:#181818;stroke-width:1.0;"/><line style="stroke:#181818;stroke-width:1.0;" x1="59.791" x2="1119.2998" y1="517.6172" y2="517.6172"/><text fill="#000000" font-family="sans-serif" font-size="13" font-weight="bold" lengthAdjust="spacing" textLength="9.0454" x="66.791" y="512.5513">9</text><text fill="#000000" font-family="sans-serif" font-size="13" lengthAdjust="spacing" textLength="212.6147" x="79.8364" y="512.5513">POST /searches { name, query }</text><polygon fill="#181818" points="70.791,542.75,60.791,546.75,70.791,550.75,66.791,546.75" style="stroke:#181818;stroke-width:1.0;"/><line style="stroke:#181818;stroke-width:1.0;stroke-dasharray:2.0,2.0;" x1="64.791" x2="1124.2998" y1="546.75" y2="546.75"/><text fill="#000000" font-family="sans-serif" font-size="13" font-weight="bold" lengthAdjust="spacing" textLength="18.0908" x="76.791" y="541.6841">10</text><text fill="#000000" font-family="sans-serif" font-size="13" lengthAdjust="spacing" textLength="282.3564" x="98.8818" y="541.6841">201 (re-runnable via GET /searches/:id/run)</text><!--SRC=[RLBBRjim4BphAnO-53PWmNQ1NbmqXMiq1Nff4JMtN5RIscPDayek9ISj2kGZ-WtzXTpxAVcIBYaxYODUz21dXZip32POWijbFfl2mzrlA0YvsW3T16A75hxx4agFN0iCpo_oDzCnnDTib6MoDQv1nXt81ck_DsuDAxH26RR1ktPN4cTO1SymkA2AMwEQCBboYwQnfa8N1e02bw8mrGccCeqkmcTVBhqBxArLl2AMWUrBH3zdGToPYYAewAeJpA3okyQBdfdWlkMAhjnmmIMPuFmU_jx3XzRL9BWc5rgE2ulwH-jmbEOg-8LWWRl6qdCnlrfPuoYwjYLMsvvuVlWxOHVOKTqFVMgkAB8iHW3vMJ8AS_ZqyHjCD7XvV_tkuUxFAmtQMecVCKxJeNfAcIIyyjIxqYIf3wzRujlH4p864m4Hnn6teg0DOyLUvD1jXZO0WYHZQiTOoI31y_pivg1Fp5hbqAlXn0Bjt8qKvxmUmsQz2U1N1x1tlKwy50TP8w1EceRgSQJeTa3xzigP5MXY2Js6i24unYefS40dUsA1ZMfAiBTnijxFCUbeliSoIMk3PEJgHzDfdh3tUJ0QCwFRmb2qWNXTJH1zi8Gnw58AfYJhzwEU_TH9f57zg5_JIRvz4OfEJSx_1qk5PRu9Ecf7oMTVcDevzbyKoltwfT3w-pqI-0aETpI6L2lyYkQBvqUzdivWo9HpwnoM6a5diBz1Hud9tDGJtHx5LFu1]--></g></svg>