<svg xmlns="http://www.w3.org/2000/svg" xmlns:xlink="http://www.w3.org/1999/xlink" contentStyleType="text/css" height="518px" preserveAspectRatio="none" style="width:905px;height:518px;background:#FFFFFF;" version="1.1" viewBox="0 0 905 518" width="905px" zoomAndPan="magnify"><title>UC-11 &#8212; Check a job ad for AGG compliance (FR-41)</title><defs/><g><text fill="#000000" font-family="sans-serif" font-size="14" font-weight="bold" lengthAdjust="spacing" textLength="409.6982" x="249.3572" y="27.9951">UC-11 &#8212; Check a job ad for AGG compliance (FR-41)</text><rect fill="#FFFFFF" height="87.3984" style="stroke:#181818;stroke-width:1.0;" width="10" x="350.1094" y="149.7266"/><rect fill="#FFFFFF" height="122.5313" style="stroke:#181818;stroke-width:1.0;" width="10" x="350.1094" y="290.3906"/><rect fill="none" height="168.7969" style="stroke:#000000;stroke-width:1.5;" width="889.4126" x="10" y="252.125"/><line style="stroke:#181818;stroke-width:0.5;stroke-dasharray:5.0,5.0;" x1="55" x2="55" y1="118.5938" y2="437.9219"/><line style="stroke:#181818;stroke-width:0.5;stroke-dasharray:5.0,5.0;" x1="354.3193" x2="354.3193" y1="118.5938" y2="437.9219"/><line style="stroke:#181818;stroke-width:0.5;stroke-dasharray:5.0,5.0;" x1="646.0298" x2="646.0298" y1="118.5938" y2="437.9219"/><line style="stroke:#181818;stroke-width:0.5;stroke-dasharray:5.0,5.0;" x1="817.3042" x2="817.3042" y1="118.5938" y2="437.9219"/><text fill="#000000" font-family="sans-serif" font-size="14" lengthAdjust="spacing" textLength="64.415" x="20" y="115.292">Recruiter</text><ellipse cx="55.2075" cy="50.7969" fill="#E2E2F0" rx="8" ry="8" style="stroke:#181818;stroke-width:0.5;"/><path d="M55.2075,58.7969 L55.2075,85.7969 M42.2075,66.7969 L68.2075,66.7969 M55.2075,85.7969 L42.2075,100.7969 M55.2075,85.7969 L68.2075,100.7969 " fill="none" style="stroke:#181818;stroke-width:0.5;"/><text fill="#000000" font-family="sans-serif" font-size="14" lengthAdjust="spacing" textLength="64.415" x="20" y="449.917">Recruiter</text><ellipse cx="55.2075" cy="461.7188" fill="#E2E2F0" rx="8" ry="8" style="stroke:#181818;stroke-width:0.5;"/><path d="M55.2075,469.7188 L55.2075,496.7188 M42.2075,477.7188 L68.2075,477.7188 M55.2075,496.7188 L42.2075,511.7188 M55.2075,496.7188 L68.2075,511.7188 " fill="none" style="stroke:#181818;stroke-width:0.5;"/><rect fill="#E2E2F0" height="30.2969" rx="2.5" ry="2.5" style="stroke:#181818;stroke-width:0.5;" width="165.5801" x="272.3193" y="87.2969"/><text fill="#000000" font-family="sans-serif" font-size="14" lengthAdjust="spacing" textLength="151.5801" x="279.3193" y="107.292">ComplianceController</text><rect fill="#E2E2F0" height="30.2969" rx="2.5" ry="2.5" style="stroke:#181818;stroke-width:0.5;" width="165.5801" x="272.3193" y="436.9219"/><text fill="#000000" font-family="sans-serif" font-size="14" lengthAdjust="spacing" textLength="151.5801" x="279.3193" y="456.917">ComplianceController</text><rect fill="#E2E2F0" height="46.5938" rx="2.5" ry="2.5" style="stroke:#181818;stroke-width:0.5;" width="178.2744" x="557.0298" y="71"/><text fill="#000000" font-family="sans-serif" font-size="14" lengthAdjust="spacing" textLength="72.3926" x="609.9707" y="90.9951">agg-check</text><text fill="#000000" font-family="sans-serif" font-size="14" lengthAdjust="spacing" textLength="164.2744" x="564.0298" y="107.292">(domain, deterministic)</text><rect fill="#E2E2F0" height="46.5938" rx="2.5" ry="2.5" style="stroke:#181818;stroke-width:0.5;" width="178.2744" x="557.0298" y="436.9219"/><text fill="#000000" font-family="sans-serif" font-size="14" lengthAdjust="spacing" textLength="72.3926" x="609.9707" y="456.917">agg-check</text><text fill="#000000" font-family="sans-serif" font-size="14" lengthAdjust="spacing" textLength="164.2744" x="564.0298" y="473.2139">(domain, deterministic)</text><rect fill="#E2E2F0" height="30.2969" rx="2.5" ry="2.5" style="stroke:#181818;stroke-width:0.5;" width="144.1084" x="745.3042" y="87.2969"/><text fill="#000000" font-family="sans-serif" font-size="14" lengthAdjust="spacing" textLength="130.1084" x="752.3042" y="107.292">OutreachAiService</text><rect fill="#E2E2F0" height="30.2969" rx="2.5" ry="2.5" style="stroke:#181818;stroke-width:0.5;" width="144.1084" x="745.3042" y="436.9219"/><text fill="#000000" font-family="sans-serif" font-size="14" lengthAdjust="spacing" textLength="130.1084" x="752.3042" y="456.917">OutreachAiService</text><rect fill="#FFFFFF" height="87.3984" style="stroke:#181818;stroke-width:1.0;" width="10" x="350.1094" y="149.7266"/><rect fill="#FFFFFF" height="122.5313" style="stroke:#181818;stroke-width:1.0;" width="10" x="350.1094" y="290.3906"/><polygon fill="#181818" points="338.1094,145.7266,348.1094,149.7266,338.1094,153.7266,342.1094,149.7266" style="stroke:#181818;stroke-width:1.0;"/><line style="stroke:#181818;stroke-width:1.0;" x1="55.2075" x2="344.1094" y1="149.7266" y2="149.7266"/><text fill="#000000" font-family="sans-serif" font-size="13" font-weight="bold" lengthAdjust="spacing" textLength="9.0454" x="62.2075" y="144.6606">1</text><text fill="#000000" font-family="sans-serif" font-size="13" lengthAdjust="spacing" textLength="262.8564" x="75.2529" y="144.6606">POST /compliance/agg-check { adText }</text><polygon fill="#181818" points="634.167,174.8594,644.167,178.8594,634.167,182.8594,638.167,178.8594" style="stroke:#181818;stroke-width:1.0;"/><line style="stroke:#181818;stroke-width:1.0;" x1="360.1094" x2="640.167" y1="178.8594" y2="178.8594"/><text fill="#000000" font-family="sans-serif" font-size="13" font-weight="bold" lengthAdjust="spacing" textLength="9.0454" x="367.1094" y="173.7935">2</text><text fill="#000000" font-family="sans-serif" font-size="13" lengthAdjust="spacing" textLength="85.2173" x="380.1548" y="173.7935">scan(adText)</text><polygon fill="#181818" points="371.1094,203.9922,361.1094,207.9922,371.1094,211.9922,367.1094,207.9922" style="stroke:#181818;stroke-width:1.0;"/><line style="stroke:#181818;stroke-width:1.0;stroke-dasharray:2.0,2.0;" x1="365.1094" x2="645.167" y1="207.9922" y2="207.9922"/><text fill="#000000" font-family="sans-serif" font-size="13" font-weight="bold" lengthAdjust="spacing" textLength="9.0454" x="377.1094" y="202.9263">3</text><text fill="#000000" font-family="sans-serif" font-size="13" lengthAdjust="spacing" textLength="249.0122" x="390.1548" y="202.9263">flags[] (age / gender / origin phrasing)</text><polygon fill="#181818" points="66.2075,233.125,56.2075,237.125,66.2075,241.125,62.2075,237.125" style="stroke:#181818;stroke-width:1.0;"/><line style="stroke:#181818;stroke-width:1.0;stroke-dasharray:2.0,2.0;" x1="60.2075" x2="354.1094" y1="237.125" y2="237.125"/><text fill="#000000" font-family="sans-serif" font-size="13" font-weight="bold" lengthAdjust="spacing" textLength="9.0454" x="72.2075" y="232.0591">4</text><text fill="#000000" font-family="sans-serif" font-size="13" lengthAdjust="spacing" textLength="214.7729" x="85.2529" y="232.0591">flagged phrases (Free &#8212; no LLM)</text><path d="M10,252.125 L79.4512,252.125 L79.4512,259.2578 L69.4512,269.2578 L10,269.2578 L10,252.125 " fill="#EEEEEE" style="stroke:#000000;stroke-width:1.5;"/><rect fill="none" height="168.7969" style="stroke:#000000;stroke-width:1.5;" width="889.4126" x="10" y="252.125"/><text fill="#000000" font-family="sans-serif" font-size="13" font-weight="bold" lengthAdjust="spacing" textLength="24.4512" x="25" y="265.1919">opt</text><text fill="#000000" font-family="sans-serif" font-size="11" font-weight="bold" lengthAdjust="spacing" textLength="138.7729" x="94.4512" y="264.3354">[neutral rewrite (Pro)]</text><polygon fill="#181818" points="338.1094,286.3906,348.1094,290.3906,338.1094,294.3906,342.1094,290.3906" style="stroke:#181818;stroke-width:1.0;"/><line style="stroke:#181818;stroke-width:1.0;" x1="55.2075" x2="344.1094" y1="290.3906" y2="290.3906"/><text fill="#000000" font-family="sans-serif" font-size="13" font-weight="bold" lengthAdjust="spacing" textLength="9.0454" x="62.2075" y="285.3247">5</text><text fill="#000000" font-family="sans-serif" font-size="13" lengthAdjust="spacing" textLength="196.936" x="75.2529" y="285.3247">POST /compliance/agg-rewrite</text><path d="M365,303.3906 L365,328.3906 L680,328.3906 L680,313.3906 L670,303.3906 L365,303.3906 " fill="#FEFFDD" style="stroke:#181818;stroke-width:0.5;"/><path d="M670,303.3906 L670,313.3906 L680,313.3906 L670,303.3906 " fill="#FEFFDD" style="stroke:#181818;stroke-width:0.5;"/><text fill="#000000" font-family="sans-serif" font-size="13" lengthAdjust="spacing" textLength="294.2837" x="371" y="320.4575">requirePro seam (ADR-0021) gates this route</text><polygon fill="#181818" points="805.3584,350.6563,815.3584,354.6563,805.3584,358.6563,809.3584,354.6563" style="stroke:#181818;stroke-width:1.0;"/><line style="stroke:#181818;stroke-width:1.0;" x1="360.1094" x2="811.3584" y1="354.6563" y2="354.6563"/><text fill="#000000" font-family="sans-serif" font-size="13" font-weight="bold" lengthAdjust="spacing" textLength="9.0454" x="367.1094" y="349.5903">6</text><text fill="#000000" font-family="sans-serif" font-size="13" lengthAdjust="spacing" textLength="126.4897" x="380.1548" y="349.5903">LLM neutral rewrite</text><polygon fill="#181818" points="371.1094,379.7891,361.1094,383.7891,371.1094,387.7891,367.1094,383.7891" style="stroke:#181818;stroke-width:1.0;"/><line style="stroke:#181818;stroke-width:1.0;stroke-dasharray:2.0,2.0;" x1="365.1094" x2="816.3584" y1="383.7891" y2="383.7891"/><text fill="#000000" font-family="sans-serif" font-size="13" font-weight="bold" lengthAdjust="spacing" textLength="9.0454" x="377.1094" y="378.7231">7</text><text fill="#000000" font-family="sans-serif" font-size="13" lengthAdjust="spacing" textLength="119.6343" x="390.1548" y="378.7231">rewrite + provider</text><polygon fill="#181818" points="66.2075,408.9219,56.2075,412.9219,66.2075,416.9219,62.2075,412.9219" style="stroke:#181818;stroke-width:1.0;"/><line style="stroke:#181818;stroke-width:1.0;stroke-dasharray:2.0,2.0;" x1="60.2075" x2="354.1094" y1="412.9219" y2="412.9219"/><text fill="#000000" font-family="sans-serif" font-size="13" font-weight="bold" lengthAdjust="spacing" textLength="9.0454" x="72.2075" y="407.856">8</text><text fill="#000000" font-family="sans-serif" font-size="13" lengthAdjust="spacing" textLength="102.2163" x="85.2529" y="407.856">neutral ad draft</text><!--SRC=[ZPBDRjD058NtynH7NTa2AmrYnG8fSjLkYbebPGKiRiVNuw7sZBapJf4G4W_14_8at2HDGh9YvvzpldlkcSa-zuoFTJMVuy-ltwWxjayWV8sFe0Pj52nkRc3ZCFQUWcKKrylgxRmq9ZtvC9BGWDHH4vzzS6YfJsneoZ5CmoEB8PiLiMGhay_wheRihHyfPDG7Q1r3bjZtBA24Eaj_8hmWvogxIVOv54qSo8VNQ5XvWmy-gQwys1WNpftuxgOiJBPR-1NBscju5QtMrfX385Jlj_Fm3lTtgmVCZflE3bFnGxjuuEyPFpSB-JLbtgNSMXMXavMGB8LYfopDvbDrfBSzkVJf2mfoZ1aSXqQdpn35EnymTa996onVa6eyPjov7JSx6ISz167U7bY8kBtzK9g6JvEPE6O4rWQeX_2pA0d5lSJI0F-z_ejHBQTqw5nzrknTHcpt3E5lanVMAKYi5wDON2shoyityn9ElGcvymaIforoNvwUY7frY_Eygjdy-wV5_IAlC4fSUwtmm3bhR8_IIzm8jLbrvnNf4Vm5]--></g></svg>