<svg xmlns="http://www.w3.org/2000/svg" xmlns:xlink="http://www.w3.org/1999/xlink" contentStyleType="text/css" data-diagram-type="DESCRIPTION" height="587px" preserveAspectRatio="none" style="width:1644px;height:587px;background:#FFFFFF;" version="1.1" viewBox="0 0 1644 587" width="1644px" zoomAndPan="magnify"><title>myJob Recruiting Suite &#8212; System Context (UML)</title><defs/><g><g class="title" data-source-line="1"><text fill="#000000" font-family="sans-serif" font-size="14" font-weight="bold" lengthAdjust="spacing" textLength="381.6709" x="624.4313" y="22.9951">myJob Recruiting Suite &#8212; System Context (UML)</text></g><!--cluster System--><g class="cluster" data-entity="System" data-source-line="11" data-uid="ent0005" id="cluster_System"><rect fill="none" height="129" rx="2.5" ry="2.5" style="stroke:#181818;stroke-width:1;" width="800" x="293" y="233.447"/><text fill="#000000" font-family="sans-serif" font-size="14" font-weight="bold" lengthAdjust="spacing" textLength="181.0703" x="602.4648" y="248.4421">myJob Recruiting Suite</text></g><!--entity API--><g class="entity" data-entity="API" data-source-line="12" data-uid="ent0006" id="entity_API"><rect fill="#F1F1F1" height="78.8906" rx="2.5" ry="2.5" style="stroke:#181818;stroke-width:0.5;" width="271.1094" x="806" y="267.947"/><rect fill="#F1F1F1" height="10" style="stroke:#181818;stroke-width:0.5;" width="15" x="1057.1094" y="272.947"/><rect fill="#F1F1F1" height="2" style="stroke:#181818;stroke-width:0.5;" width="4" x="1055.1094" y="274.947"/><rect fill="#F1F1F1" height="2" style="stroke:#181818;stroke-width:0.5;" width="4" x="1055.1094" y="278.947"/><text fill="#000000" font-family="sans-serif" font-size="14" lengthAdjust="spacing" textLength="62.6104" x="905.2495" y="300.9421">REST API</text><text fill="#000000" font-family="sans-serif" font-size="14" lengthAdjust="spacing" textLength="47.9814" x="912.564" y="317.239">/api/v1</text><text fill="#000000" font-family="sans-serif" font-size="14" lengthAdjust="spacing" textLength="231.1094" x="821" y="333.5359">(OpenAPI + Swagger UI at /docs)</text></g><!--entity UI--><g class="entity" data-entity="UI" data-source-line="13" data-uid="ent0007" id="entity_UI"><rect fill="#F1F1F1" height="62.5938" rx="2.5" ry="2.5" style="stroke:#181818;stroke-width:0.5;" width="258.7295" x="309" y="275.947"/><rect fill="#F1F1F1" height="10" style="stroke:#181818;stroke-width:0.5;" width="15" x="547.7295" y="280.947"/><rect fill="#F1F1F1" height="2" style="stroke:#181818;stroke-width:0.5;" width="4" x="545.7295" y="282.947"/><rect fill="#F1F1F1" height="2" style="stroke:#181818;stroke-width:0.5;" width="4" x="545.7295" y="286.947"/><text fill="#000000" font-family="sans-serif" font-size="14" lengthAdjust="spacing" textLength="153.4873" x="356.6211" y="308.9421">Recruiting Workspace</text><text fill="#000000" font-family="sans-serif" font-size="14" lengthAdjust="spacing" textLength="218.7295" x="324" y="325.239">(Vite/React, self-hosted assets)</text></g><!--entity Recruiter--><g class="entity" data-entity="Recruiter" data-source-line="7" data-uid="ent0002" id="entity_Recruiter"><ellipse cx="42.791" cy="269.447" fill="#F1F1F1" rx="8" ry="8" style="stroke:#181818;stroke-width:0.5;"/><path d="M42.791,277.447 L42.791,304.447 M29.791,285.447 L55.791,285.447 M42.791,304.447 L29.791,319.447 M42.791,304.447 L55.791,319.447" fill="none" style="stroke:#181818;stroke-width:0.5;"/><text fill="#000000" font-family="sans-serif" font-size="14" lengthAdjust="spacing" textLength="73.582" x="6" y="333.9421">Recruiter /</text><text fill="#000000" font-family="sans-serif" font-size="14" lengthAdjust="spacing" textLength="44.8643" x="20.3589" y="350.239">Admin</text></g><!--entity Candidate--><g class="entity" data-entity="Candidate" data-source-line="8" data-uid="ent0003" id="entity_Candidate"><ellipse cx="438.3257" cy="386.447" fill="#F1F1F1" rx="8" ry="8" style="stroke:#181818;stroke-width:0.5;"/><path d="M438.3257,394.447 L438.3257,421.447 M425.3257,402.447 L451.3257,402.447 M438.3257,421.447 L425.3257,436.447 M438.3257,421.447 L451.3257,436.447" fill="none" style="stroke:#181818;stroke-width:0.5;"/><text fill="#000000" font-family="sans-serif" font-size="14" lengthAdjust="spacing" textLength="71.5723" x="402.5396" y="450.9421">Candidate</text><text fill="#000000" font-family="sans-serif" font-size="14" lengthAdjust="spacing" textLength="97.6514" x="389.5" y="467.239">(data subject)</text></g><!--entity Ext--><g class="entity" data-entity="Ext" data-source-line="9" data-uid="ent0004" id="entity_Ext"><ellipse cx="438.5669" cy="514.947" fill="#F1F1F1" rx="8" ry="8" style="stroke:#181818;stroke-width:0.5;"/><path d="M438.5669,522.947 L438.5669,549.947 M425.5669,530.947 L451.5669,530.947 M438.5669,549.947 L425.5669,564.947 M438.5669,549.947 L451.5669,564.947" fill="none" style="stroke:#181818;stroke-width:0.5;"/><text fill="#000000" font-family="sans-serif" font-size="14" lengthAdjust="spacing" textLength="89.1338" x="394" y="579.4421">External app</text></g><!--entity LLM--><g class="entity" data-entity="LLM" data-source-line="16" data-uid="ent0008" id="entity_LLM"><path d="M1391.0053,56.1734 C1394.4168,48.6075 1400.8812,48.9826 1405.3626,55.0464 C1408.9083,49.0852 1412.9211,49.7107 1416.6558,54.8541 C1420.2623,47.6979 1425.5183,46.507 1430.5515,53.4477 C1433.9517,45.3933 1441.0191,46.2603 1445.1566,52.705 C1448.1744,47.5234 1452.7966,47.1535 1456.5696,51.8307 C1460.6631,44.0117 1466.8505,44.9168 1471.6975,51.0114 C1475.036,43.6343 1480.8002,43.2969 1485.3217,49.8547 C1490.3264,45.2045 1494.4213,46.3306 1497.4317,52.1594 C1500.7262,45.2274 1507.2262,45.2624 1510.5261,52.1542 C1515.9129,46.5844 1520.2634,47.3604 1523.8131,54.132 C1527.9479,48.006 1532.4555,47.9706 1536.8463,53.8541 C1541.6753,47.452 1545.8875,48.5393 1549.997,54.6126 C1555.2295,49.0263 1560.0583,49.1376 1564.4924,55.5751 C1569.125,49.5256 1574.1255,51.5994 1577.0274,57.4051 C1583.7789,61.2157 1586.7759,66.5057 1579.2476,72.4269 C1587.0636,77.226 1587.2991,84.0674 1578.605,88.1936 C1584.2495,93.7648 1585.3373,98.7808 1577.3887,103.2541 C1585.8179,108.5308 1584.3774,116.7875 1576.4949,121.2542 C1572.8754,127.1281 1567.422,125.9394 1564.3241,120.6838 C1561.2451,128.0872 1555.5281,128.5495 1550.434,122.8142 C1547.5272,129.0124 1541.3529,129.5006 1537.4334,123.9332 C1534.5984,129.9624 1528.5396,131.0168 1524.4293,125.3513 C1520.442,132.2705 1514.4466,131.5839 1510.5648,125.241 C1508.3481,132.4773 1503.1476,132.7046 1498.0399,128.3706 C1493.5207,135.9793 1488.8843,134.2443 1484.2515,128.4878 C1479.3198,134.9249 1474.5328,134.7815 1470.4311,127.6429 C1465.3071,132.9782 1459.7444,132.9024 1456.6408,125.4621 C1451.9672,131.771 1447.9085,130.7833 1443.5879,125.0787 C1439.1416,130.3073 1432.7644,128.9862 1430.56,122.5704 C1427.142,129.0212 1422.5545,128.9444 1418.5719,123.1219 C1414.1126,129.3583 1406.69,129.3635 1403.5283,121.7159 C1399.3969,126.4451 1395.2282,126.6213 1391.6401,121.0867 C1381.6622,117.0614 1380.8134,110.2234 1388.576,103.165 C1381.44,100.2651 1380.7922,94.8755 1386.4299,89.9077 C1378.71,82.8331 1382.2908,77.2663 1390.1018,73.713 C1380.8753,68.7091 1382.6294,60.2706 1391.0053,56.1734" fill="#F1F1F1" style="stroke:#181818;stroke-width:0.5;"/><text fill="#000000" font-family="sans-serif" font-size="14" lengthAdjust="spacing" textLength="98.0615" x="1434.0474" y="75.9421">LLM providers</text><text fill="#000000" font-family="sans-serif" font-size="14" lengthAdjust="spacing" textLength="112.3213" x="1426.9175" y="92.239">Claude - Gemini</text><text fill="#000000" font-family="sans-serif" font-size="14" lengthAdjust="spacing" textLength="172.1563" x="1397" y="108.5359">(per-user keys, optional)</text></g><!--entity Jobs--><g class="entity" data-entity="Jobs" data-source-line="17" data-uid="ent0009" id="entity_Jobs"><path d="M1348.083,173.0252 C1353.4851,163.036 1361.9243,159.9463 1369.9304,170.2171 C1375.7849,162.462 1381.0475,162.7249 1386.6372,170.5018 C1392.7777,159.5262 1400.1519,161.1566 1407.4294,169.2629 C1411.4831,159.3058 1419.8527,159.5372 1426.3936,166.4703 C1431.7608,155.8026 1441.675,156.2212 1447.7332,165.7399 C1454.2988,157.03 1459.7175,158.7878 1465.1103,166.948 C1471.8734,157.6406 1478.2472,154.5127 1486.7251,165.0833 C1491.4841,157.1914 1496.5474,155.685 1502.6668,163.7217 C1509.4002,154.2497 1516.9787,156.4265 1522.5951,164.9582 C1529.5663,153.999 1536.7229,155.57 1543.0178,165.6158 C1549.8678,157.7431 1556.2487,157.859 1561.0255,167.7209 C1568.1725,158.6495 1575.2012,161.0928 1580.553,169.7036 C1587.4787,161.5253 1596.0465,160.0698 1601.9011,170.9061 C1607.6964,163.4651 1615.0906,162.3047 1620.1413,171.7122 C1637.5336,181.5376 1635.9442,192.7653 1621.7262,204.1358 C1635.2055,212.1802 1634.6819,226.4296 1620.3012,233.1035 C1616.2788,243.0352 1608.4199,242.8202 1602.1006,235.5311 C1597.3322,247.2672 1590.0354,247.0758 1582.288,238.4263 C1577.9213,247.9298 1570.2482,249.104 1563.5444,240.9003 C1556.9679,250.46 1550.1883,249.7033 1544.4631,240.0546 C1538.9472,252.5419 1530.4481,251.9361 1522.5137,242.4732 C1516.2621,252.4959 1509.7242,251.7552 1503.7612,242.1968 C1499.5681,252.3446 1493.5017,252.8189 1486.2983,245.1467 C1480.0044,255.6268 1470.8059,254.0185 1465.3104,244.3165 C1458.3296,251.3225 1451.4376,250.9261 1446.5788,241.8457 C1439.5136,250.5545 1432.3302,253.2656 1425.403,241.7016 C1417.6555,250.7585 1410.9043,248.5834 1406.0222,238.7602 C1400.7306,247.9951 1392.8982,246.8218 1387.6871,238.6753 C1378.8154,248.2845 1372.7398,245.1281 1366.9454,235.3781 C1361.9063,243.5632 1353.3389,242.884 1349.5165,234.1265 C1330.4675,228.9743 1326.8175,219.7023 1339.7535,204.1374 C1328.1696,189.7885 1330.8907,179.67 1348.083,173.0252" fill="#F1F1F1" style="stroke:#181818;stroke-width:0.5;"/><text fill="#000000" font-family="sans-serif" font-size="14" lengthAdjust="spacing" textLength="73.999" x="1446.1792" y="189.9421">Job boards</text><text fill="#000000" font-family="sans-serif" font-size="14" lengthAdjust="spacing" textLength="258.3574" x="1354" y="206.239">Arbeitnow - Bundesagentur - Adzuna</text><text fill="#000000" font-family="sans-serif" font-size="14" lengthAdjust="spacing" textLength="248.8623" x="1358.7476" y="222.5359">(optional; offline sample otherwise)</text></g><!--entity Mail--><g class="entity" data-entity="Mail" data-source-line="18" data-uid="ent0010" id="entity_Mail"><polygon fill="#F1F1F1" points="1358,285.947,1368,275.947,1608.2598,275.947,1608.2598,328.5408,1598.2598,338.5408,1358,338.5408,1358,285.947" style="stroke:#181818;stroke-width:0.5;"/><line style="stroke:#181818;stroke-width:0.5;" x1="1598.2598" x2="1608.2598" y1="285.947" y2="275.947"/><line style="stroke:#181818;stroke-width:0.5;" x1="1358" x2="1598.2598" y1="285.947" y2="285.947"/><line style="stroke:#181818;stroke-width:0.5;" x1="1598.2598" x2="1598.2598" y1="285.947" y2="338.5408"/><text fill="#000000" font-family="sans-serif" font-size="14" lengthAdjust="spacing" textLength="86.7754" x="1434.7422" y="308.9421">SMTP mailer</text><text fill="#000000" font-family="sans-serif" font-size="14" lengthAdjust="spacing" textLength="210.2598" x="1373" y="325.239">(verification - password reset)</text></g><!--entity Chromium--><g class="entity" data-entity="Chromium" data-source-line="19" data-uid="ent0011" id="entity_Chromium"><polygon fill="#F1F1F1" points="1378,383.947,1388,373.947,1588.2217,373.947,1588.2217,426.5408,1578.2217,436.5408,1378,436.5408,1378,383.947" style="stroke:#181818;stroke-width:0.5;"/><line style="stroke:#181818;stroke-width:0.5;" x1="1578.2217" x2="1588.2217" y1="383.947" y2="373.947"/><line style="stroke:#181818;stroke-width:0.5;" x1="1378" x2="1578.2217" y1="383.947" y2="383.947"/><line style="stroke:#181818;stroke-width:0.5;" x1="1578.2217" x2="1578.2217" y1="383.947" y2="436.5408"/><text fill="#000000" font-family="sans-serif" font-size="14" lengthAdjust="spacing" textLength="141.1553" x="1407.5332" y="406.9421">Headless Chromium</text><text fill="#000000" font-family="sans-serif" font-size="14" lengthAdjust="spacing" textLength="170.2217" x="1393" y="423.239">(Puppeteer, PDF render)</text></g><!--entity Store--><g class="entity" data-entity="Store" data-source-line="20" data-uid="ent0012" id="entity_Store"><path d="M1386.5,482.447 C1386.5,472.447 1483.1592,472.447 1483.1592,472.447 C1483.1592,472.447 1579.8184,472.447 1579.8184,482.447 L1579.8184,540.3377 C1579.8184,550.3377 1483.1592,550.3377 1483.1592,550.3377 C1483.1592,550.3377 1386.5,550.3377 1386.5,540.3377 L1386.5,482.447" fill="#F1F1F1" style="stroke:#181818;stroke-width:0.5;"/><path d="M1386.5,482.447 C1386.5,492.447 1483.1592,492.447 1483.1592,492.447 C1483.1592,492.447 1579.8184,492.447 1579.8184,482.447" fill="none" style="stroke:#181818;stroke-width:0.5;"/><text fill="#000000" font-family="sans-serif" font-size="14" lengthAdjust="spacing" textLength="37.3105" x="1464.5039" y="509.4421">Store</text><text fill="#000000" font-family="sans-serif" font-size="14" lengthAdjust="spacing" textLength="139.6924" x="1413.313" y="525.739">Filesystem (default)</text><text fill="#000000" font-family="sans-serif" font-size="14" lengthAdjust="spacing" textLength="173.3184" x="1396.5" y="542.0359">or Postgres (STORE=sql)</text></g><!--link Recruiter to UI--><g class="link" data-entity-1="Recruiter" data-entity-2="UI" data-source-line="22" data-uid="lnk13" id="link_Recruiter_UI"><path d="M80.31,307.447 C131.88,307.447 222.92,307.447 302.86,307.447" fill="none" id="Recruiter-to-UI" style="stroke:#181818;stroke-width:1;"/><polygon fill="#181818" points="308.86,307.447,299.86,303.447,303.86,307.447,299.86,311.447,308.86,307.447" style="stroke:#181818;stroke-width:1;"/><text fill="#000000" font-family="sans-serif" font-size="13" lengthAdjust="spacing" textLength="88.7466" x="149.2034" y="288.5139">runs the desk</text><text fill="#000000" font-family="sans-serif" font-size="13" lengthAdjust="spacing" textLength="165.1533" x="111" y="303.6467">(browser, session cookie)</text></g><!--link UI to API--><g class="link" data-entity-1="UI" data-entity-2="API" data-source-line="23" data-uid="lnk14" id="link_UI_API"><path d="M568.19,307.447 C640.97,307.447 725.86,307.447 799.63,307.447" fill="none" id="UI-to-API" style="stroke:#181818;stroke-width:1;"/><polygon fill="#181818" points="805.63,307.447,796.63,303.447,800.63,307.447,796.63,311.447,805.63,307.447" style="stroke:#181818;stroke-width:1;"/><text fill="#000000" font-family="sans-serif" font-size="13" lengthAdjust="spacing" textLength="154.7305" x="610" y="303.5139">HTTP/JSON, same origin</text></g><!--link Ext to API--><g class="link" data-entity-1="Ext" data-entity-2="API" data-source-line="24" data-uid="lnk15" id="link_Ext_API"><path d="M483.14,533.717 C548.97,516.567 676.55,479.527 776,427.447 C818.59,405.147 857.6789,376.4328 889.3589,350.8928" fill="none" id="Ext-to-API" style="stroke:#181818;stroke-width:1;"/><polygon fill="#181818" points="894.03,347.127,884.5129,349.6616,890.1374,350.2652,889.5339,355.8897,894.03,347.127" style="stroke:#181818;stroke-width:1;"/><text fill="#000000" font-family="sans-serif" font-size="13" lengthAdjust="spacing" textLength="149.6333" x="612.5" y="408.5139">integrates (HTTP/JSON,</text><text fill="#000000" font-family="sans-serif" font-size="13" lengthAdjust="spacing" textLength="111.0332" x="631.8" y="423.6467">see /api/v1/docs)</text></g><!--link Candidate to API--><g class="link" data-entity-1="Candidate" data-entity-2="API" data-source-line="25" data-uid="lnk16" id="link_Candidate_API"><path d="M487.75,413.627 C553.13,398.907 673.49,371.637 776,347.447 C785.73,345.147 789.9348,344.1538 800.0448,341.7338" fill="none" id="Candidate-to-API" style="stroke:#181818;stroke-width:1;stroke-dasharray:7,7;"/><polygon fill="#181818" points="805.88,340.337,796.1961,338.542,801.0174,341.501,798.0584,346.3223,805.88,340.337" style="stroke:#181818;stroke-width:1;"/><text fill="#000000" font-family="sans-serif" font-size="13" lengthAdjust="spacing" textLength="97.1953" x="638.8379" y="328.5139">data subject of</text><text fill="#000000" font-family="sans-serif" font-size="13" lengthAdjust="spacing" textLength="176.8711" x="599" y="343.6467">export / erasure / retention</text></g><!--link API to LLM--><g class="link" data-entity-1="API" data-entity-2="LLM" data-source-line="27" data-uid="lnk17" id="link_API_LLM"><path d="M1004.17,267.887 C1034.9,249.227 1073.08,227.577 1109,211.447 C1198.65,171.197 1299.6995,138.6753 1375.9995,116.4453" fill="none" id="API-to-LLM" style="stroke:#181818;stroke-width:1;"/><polygon fill="#181818" points="1381.76,114.767,1372.0004,113.4442,1376.9596,116.1656,1374.2381,121.1248,1381.76,114.767" style="stroke:#181818;stroke-width:1;"/><text fill="#000000" font-family="sans-serif" font-size="13" lengthAdjust="spacing" textLength="182.5269" x="1118.1377" y="121.5139">generate (parse, ATS, pitch,</text><text fill="#000000" font-family="sans-serif" font-size="13" lengthAdjust="spacing" textLength="198.8022" x="1110" y="136.6467">outreach, translate, kits, prep)</text></g><!--link API to Jobs--><g class="link" data-entity-1="API" data-entity-2="Jobs" data-source-line="28" data-uid="lnk18" id="link_API_Jobs"><path d="M1077.25,280.977 C1156.83,265.337 1251.6525,246.7035 1332.7025,230.7835" fill="none" id="API-to-Jobs" style="stroke:#181818;stroke-width:1;"/><polygon fill="#181818" points="1338.59,229.627,1328.9878,227.4367,1333.6837,230.5907,1330.5297,235.2867,1338.59,229.627" style="stroke:#181818;stroke-width:1;"/><text fill="#000000" font-family="sans-serif" font-size="13" lengthAdjust="spacing" textLength="102.5527" x="1158" y="232.5139">search postings</text></g><!--link API to Mail--><g class="link" data-entity-1="API" data-entity-2="Mail" data-source-line="29" data-uid="lnk19" id="link_API_Mail"><path d="M1077.25,307.447 C1163.23,307.447 1267.87,307.447 1351.74,307.447" fill="none" id="API-to-Mail" style="stroke:#181818;stroke-width:1;"/><polygon fill="#181818" points="1357.74,307.447,1348.74,303.447,1352.74,307.447,1348.74,311.447,1357.74,307.447" style="stroke:#181818;stroke-width:1;"/><text fill="#000000" font-family="sans-serif" font-size="13" lengthAdjust="spacing" textLength="187.9985" x="1115.5" y="303.5139">send verification / reset links</text></g><!--link API to Chromium--><g class="link" data-entity-1="API" data-entity-2="Chromium" data-source-line="30" data-uid="lnk20" id="link_API_Chromium"><path d="M1077.24,340.797 C1087.96,343.157 1098.65,345.397 1109,347.447 C1199.33,365.287 1296.9185,380.1809 1371.9585,390.7409" fill="none" id="API-to-Chromium" style="stroke:#181818;stroke-width:1;"/><polygon fill="#181818" points="1377.9,391.577,1369.5452,386.3619,1372.9488,390.8803,1368.4304,394.2838,1377.9,391.577" style="stroke:#181818;stroke-width:1;"/><text fill="#000000" font-family="sans-serif" font-size="13" lengthAdjust="spacing" textLength="132.6597" x="1142.9089" y="328.5139">render HTML -&gt; PDF</text><text fill="#000000" font-family="sans-serif" font-size="13" lengthAdjust="spacing" textLength="137.4775" x="1140.5" y="343.6467">(documents, dossier)</text></g><!--link API to Store--><g class="link" data-entity-1="API" data-entity-2="Store" data-source-line="31" data-uid="lnk21" id="link_API_Store"><path d="M990.75,347.037 C1022.6,371.387 1066.21,401.457 1109,420.447 C1198.86,460.337 1303.087,483.4492 1380.297,496.7392" fill="none" id="API-to-Store" style="stroke:#181818;stroke-width:1;"/><polygon fill="#181818" points="1386.21,497.757,1378.019,492.2883,1381.2825,496.9089,1376.6619,500.1724,1386.21,497.757" style="stroke:#181818;stroke-width:1;"/><text fill="#000000" font-family="sans-serif" font-size="13" lengthAdjust="spacing" textLength="129.7651" x="1144.5" y="401.5139">persist (repositories</text><text fill="#000000" font-family="sans-serif" font-size="13" lengthAdjust="spacing" textLength="87.2168" x="1165.7742" y="416.6467">behind ports)</text></g></g></svg>