<svg xmlns="http://www.w3.org/2000/svg" xmlns:xlink="http://www.w3.org/1999/xlink" contentStyleType="text/css" height="930px" preserveAspectRatio="none" style="width:1804px;height:930px;background:#FFFFFF;" version="1.1" viewBox="0 0 1804 930" width="1804px" zoomAndPan="magnify"><title>AI generation with grounding, provider resolution, fallback &amp; metering (FR-30/31/38)</title><defs/><g><text fill="#000000" font-family="sans-serif" font-size="14" font-weight="bold" lengthAdjust="spacing" textLength="673.7227" x="566.333" y="27.9951">AI generation with grounding, provider resolution, fallback &amp; metering (FR-30/31/38)</text><rect fill="#FFFFFF" height="681.8594" style="stroke:#181818;stroke-width:1.0;" width="10" x="392.979" y="149.7266"/><rect fill="#FFFFFF" height="566.3281" style="stroke:#181818;stroke-width:1.0;" width="10" x="704.0806" y="220.9922"/><rect fill="#FFFFFF" height="457.7969" style="stroke:#181818;stroke-width:1.0;" width="10" x="940.1929" y="250.125"/><rect fill="none" height="378.5313" style="stroke:#000000;stroke-width:1.5;" width="1206.3887" x="591" y="322.3906"/><line style="stroke:#181818;stroke-width:0.5;stroke-dasharray:5.0,5.0;" x1="40" x2="40" y1="118.5938" y2="849.5859"/><line style="stroke:#181818;stroke-width:0.5;stroke-dasharray:5.0,5.0;" x1="397.3926" x2="397.3926" y1="118.5938" y2="849.5859"/><line style="stroke:#181818;stroke-width:0.5;stroke-dasharray:5.0,5.0;" x1="708.1392" x2="708.1392" y1="118.5938" y2="849.5859"/><line style="stroke:#181818;stroke-width:0.5;stroke-dasharray:5.0,5.0;" x1="945.1831" x2="945.1831" y1="118.5938" y2="849.5859"/><line style="stroke:#181818;stroke-width:0.5;stroke-dasharray:5.0,5.0;" x1="1263.855" x2="1263.855" y1="118.5938" y2="849.5859"/><line style="stroke:#181818;stroke-width:0.5;stroke-dasharray:5.0,5.0;" x1="1378.0093" x2="1378.0093" y1="118.5938" y2="849.5859"/><line style="stroke:#181818;stroke-width:0.5;stroke-dasharray:5.0,5.0;" x1="1493.0776" x2="1493.0776" y1="118.5938" y2="849.5859"/><line style="stroke:#181818;stroke-width:0.5;stroke-dasharray:5.0,5.0;" x1="1611.4624" x2="1611.4624" y1="118.5938" y2="849.5859"/><text fill="#000000" font-family="sans-serif" font-size="14" lengthAdjust="spacing" textLength="64.415" x="5" y="115.292">Recruiter</text><ellipse cx="40.2075" cy="50.7969" fill="#E2E2F0" rx="8" ry="8" style="stroke:#181818;stroke-width:0.5;"/><path d="M40.2075,58.7969 L40.2075,85.7969 M27.2075,66.7969 L53.2075,66.7969 M40.2075,85.7969 L27.2075,100.7969 M40.2075,85.7969 L53.2075,100.7969 " fill="none" style="stroke:#181818;stroke-width:0.5;"/><text fill="#000000" font-family="sans-serif" font-size="14" lengthAdjust="spacing" textLength="64.415" x="5" y="861.5811">Recruiter</text><ellipse cx="40.2075" cy="873.3828" fill="#E2E2F0" rx="8" ry="8" style="stroke:#181818;stroke-width:0.5;"/><path d="M40.2075,881.3828 L40.2075,908.3828 M27.2075,889.3828 L53.2075,889.3828 M40.2075,908.3828 L27.2075,923.3828 M40.2075,908.3828 L53.2075,923.3828 " fill="none" style="stroke:#181818;stroke-width:0.5;"/><rect fill="#E2E2F0" height="30.2969" rx="2.5" ry="2.5" style="stroke:#181818;stroke-width:0.5;" width="83.1729" x="356.3926" y="87.2969"/><text fill="#000000" font-family="sans-serif" font-size="14" lengthAdjust="spacing" textLength="69.1729" x="363.3926" y="107.292">Controller</text><rect fill="#E2E2F0" height="30.2969" rx="2.5" ry="2.5" style="stroke:#181818;stroke-width:0.5;" width="83.1729" x="356.3926" y="848.5859"/><text fill="#000000" font-family="sans-serif" font-size="14" lengthAdjust="spacing" textLength="69.1729" x="363.3926" y="868.5811">Controller</text><rect fill="#E2E2F0" height="46.5938" rx="2.5" ry="2.5" style="stroke:#181818;stroke-width:0.5;" width="185.8828" x="616.1392" y="71"/><text fill="#000000" font-family="sans-serif" font-size="14" lengthAdjust="spacing" textLength="123.6074" x="647.2769" y="90.9951">AI feature service</text><text fill="#000000" font-family="sans-serif" font-size="14" lengthAdjust="spacing" textLength="171.8828" x="623.1392" y="107.292">(e.g. OutreachAiService)</text><rect fill="#E2E2F0" height="46.5938" rx="2.5" ry="2.5" style="stroke:#181818;stroke-width:0.5;" width="185.8828" x="616.1392" y="848.5859"/><text fill="#000000" font-family="sans-serif" font-size="14" lengthAdjust="spacing" textLength="123.6074" x="647.2769" y="868.5811">AI feature service</text><text fill="#000000" font-family="sans-serif" font-size="14" lengthAdjust="spacing" textLength="171.8828" x="623.1392" y="884.8779">(e.g. OutreachAiService)</text><rect fill="#E2E2F0" height="30.2969" rx="2.5" ry="2.5" style="stroke:#181818;stroke-width:0.5;" width="144.0195" x="873.1831" y="87.2969"/><text fill="#000000" font-family="sans-serif" font-size="14" lengthAdjust="spacing" textLength="130.0195" x="880.1831" y="107.292">LlmFeatureRunner</text><rect fill="#E2E2F0" height="30.2969" rx="2.5" ry="2.5" style="stroke:#181818;stroke-width:0.5;" width="144.0195" x="873.1831" y="848.5859"/><text fill="#000000" font-family="sans-serif" font-size="14" lengthAdjust="spacing" textLength="130.0195" x="880.1831" y="868.5811">LlmFeatureRunner</text><rect fill="#E2E2F0" height="46.5938" rx="2.5" ry="2.5" style="stroke:#181818;stroke-width:0.5;" width="117.1543" x="1205.855" y="71"/><text fill="#000000" font-family="sans-serif" font-size="14" lengthAdjust="spacing" textLength="85.7432" x="1221.5605" y="90.9951">ApiKeyStore</text><text fill="#000000" font-family="sans-serif" font-size="14" lengthAdjust="spacing" textLength="103.1543" x="1212.855" y="107.292">(secret-cipher)</text><rect fill="#E2E2F0" height="46.5938" rx="2.5" ry="2.5" style="stroke:#181818;stroke-width:0.5;" width="117.1543" x="1205.855" y="848.5859"/><text fill="#000000" font-family="sans-serif" font-size="14" lengthAdjust="spacing" textLength="85.7432" x="1221.5605" y="868.5811">ApiKeyStore</text><text fill="#000000" font-family="sans-serif" font-size="14" lengthAdjust="spacing" textLength="103.1543" x="1212.855" y="884.8779">(secret-cipher)</text><rect fill="#E2E2F0" height="46.5938" rx="2.5" ry="2.5" style="stroke:#181818;stroke-width:0.5;" width="91.0684" x="1333.0093" y="71"/><text fill="#000000" font-family="sans-serif" font-size="14" lengthAdjust="spacing" textLength="77.0684" x="1340.0093" y="90.9951">LlmService</text><text fill="#000000" font-family="sans-serif" font-size="14" lengthAdjust="spacing" textLength="74.8193" x="1341.1338" y="107.292">&#8594; provider</text><rect fill="#E2E2F0" height="46.5938" rx="2.5" ry="2.5" style="stroke:#181818;stroke-width:0.5;" width="91.0684" x="1333.0093" y="848.5859"/><text fill="#000000" font-family="sans-serif" font-size="14" lengthAdjust="spacing" textLength="77.0684" x="1340.0093" y="868.5811">LlmService</text><text fill="#000000" font-family="sans-serif" font-size="14" lengthAdjust="spacing" textLength="74.8193" x="1341.1338" y="884.8779">&#8594; provider</text><rect fill="#E2E2F0" height="46.5938" rx="2.5" ry="2.5" style="stroke:#181818;stroke-width:0.5;" width="118.3848" x="1434.0776" y="71"/><text fill="#000000" font-family="sans-serif" font-size="14" lengthAdjust="spacing" textLength="71.4902" x="1457.5249" y="90.9951">grounding</text><text fill="#000000" font-family="sans-serif" font-size="14" lengthAdjust="spacing" textLength="104.3848" x="1441.0776" y="107.292">(domain, pure)</text><rect fill="#E2E2F0" height="46.5938" rx="2.5" ry="2.5" style="stroke:#181818;stroke-width:0.5;" width="118.3848" x="1434.0776" y="848.5859"/><text fill="#000000" font-family="sans-serif" font-size="14" lengthAdjust="spacing" textLength="71.4902" x="1457.5249" y="868.5811">grounding</text><text fill="#000000" font-family="sans-serif" font-size="14" lengthAdjust="spacing" textLength="104.3848" x="1441.0776" y="884.8779">(domain, pure)</text><rect fill="#E2E2F0" height="30.2969" rx="2.5" ry="2.5" style="stroke:#181818;stroke-width:0.5;" width="98.1709" x="1562.4624" y="87.2969"/><text fill="#000000" font-family="sans-serif" font-size="14" lengthAdjust="spacing" textLength="84.1709" x="1569.4624" y="107.292">UsageMeter</text><rect fill="#E2E2F0" height="30.2969" rx="2.5" ry="2.5" style="stroke:#181818;stroke-width:0.5;" width="98.1709" x="1562.4624" y="848.5859"/><text fill="#000000" font-family="sans-serif" font-size="14" lengthAdjust="spacing" textLength="84.1709" x="1569.4624" y="868.5811">UsageMeter</text><rect fill="#FFFFFF" height="681.8594" style="stroke:#181818;stroke-width:1.0;" width="10" x="392.979" y="149.7266"/><rect fill="#FFFFFF" height="566.3281" style="stroke:#181818;stroke-width:1.0;" width="10" x="704.0806" y="220.9922"/><rect fill="#FFFFFF" height="457.7969" style="stroke:#181818;stroke-width:1.0;" width="10" x="940.1929" y="250.125"/><polygon fill="#181818" points="380.979,145.7266,390.979,149.7266,380.979,153.7266,384.979,149.7266" style="stroke:#181818;stroke-width:1.0;"/><line style="stroke:#181818;stroke-width:1.0;" x1="40.2075" x2="386.979" y1="149.7266" y2="149.7266"/><text fill="#000000" font-family="sans-serif" font-size="13" font-weight="bold" lengthAdjust="spacing" textLength="9.0454" x="99.2437" y="144.6606">1</text><text fill="#000000" font-family="sans-serif" font-size="13" lengthAdjust="spacing" textLength="221.6538" x="112.2891" y="144.6606">POST /talents/:id/documents/pitch</text><line style="stroke:#181818;stroke-width:1.0;" x1="402.979" x2="444.979" y1="178.8594" y2="178.8594"/><line style="stroke:#181818;stroke-width:1.0;" x1="444.979" x2="444.979" y1="178.8594" y2="191.8594"/><line style="stroke:#181818;stroke-width:1.0;" x1="403.979" x2="444.979" y1="191.8594" y2="191.8594"/><polygon fill="#181818" points="413.979,187.8594,403.979,191.8594,413.979,195.8594,409.979,191.8594" style="stroke:#181818;stroke-width:1.0;"/><text fill="#000000" font-family="sans-serif" font-size="13" font-weight="bold" lengthAdjust="spacing" textLength="9.0454" x="409.979" y="173.7935">2</text><text fill="#000000" font-family="sans-serif" font-size="13" lengthAdjust="spacing" textLength="116.2002" x="423.0244" y="173.7935">zod-validate body</text><polygon fill="#181818" points="692.0806,216.9922,702.0806,220.9922,692.0806,224.9922,696.0806,220.9922" style="stroke:#181818;stroke-width:1.0;"/><line style="stroke:#181818;stroke-width:1.0;" x1="402.979" x2="698.0806" y1="220.9922" y2="220.9922"/><text fill="#000000" font-family="sans-serif" font-size="13" font-weight="bold" lengthAdjust="spacing" textLength="9.0454" x="480.8074" y="215.9263">3</text><text fill="#000000" font-family="sans-serif" font-size="13" lengthAdjust="spacing" textLength="132.3994" x="493.8528" y="215.9263">pitchForMandate(...)</text><polygon fill="#181818" points="928.1929,246.125,938.1929,250.125,928.1929,254.125,932.1929,250.125" style="stroke:#181818;stroke-width:1.0;"/><line style="stroke:#181818;stroke-width:1.0;" x1="714.0806" x2="934.1929" y1="250.125" y2="250.125"/><text fill="#000000" font-family="sans-serif" font-size="13" font-weight="bold" lengthAdjust="spacing" textLength="9.0454" x="723.5806" y="245.0591">4</text><text fill="#000000" font-family="sans-serif" font-size="13" lengthAdjust="spacing" textLength="194.0669" x="736.626" y="245.0591">run(feature, prompt, schema)</text><line style="stroke:#181818;stroke-width:1.0;" x1="950.1929" x2="992.1929" y1="294.3906" y2="294.3906"/><line style="stroke:#181818;stroke-width:1.0;" x1="992.1929" x2="992.1929" y1="294.3906" y2="307.3906"/><line style="stroke:#181818;stroke-width:1.0;" x1="951.1929" x2="992.1929" y1="307.3906" y2="307.3906"/><polygon fill="#181818" points="961.1929,303.3906,951.1929,307.3906,961.1929,311.3906,957.1929,307.3906" style="stroke:#181818;stroke-width:1.0;"/><text fill="#000000" font-family="sans-serif" font-size="13" font-weight="bold" lengthAdjust="spacing" textLength="9.0454" x="957.1929" y="281.7583">5</text><text fill="#000000" font-family="sans-serif" font-size="13" lengthAdjust="spacing" textLength="111.5537" x="1050.5583" y="274.1919">resolveProvider()</text><text fill="#000000" font-family="sans-serif" font-size="13" lengthAdjust="spacing" textLength="272.1938" x="970.2383" y="289.3247">(User.llmProvider ADR-0011, else default)</text><path d="M591,322.3906 L655.4429,322.3906 L655.4429,329.5234 L645.4429,339.5234 L591,339.5234 L591,322.3906 " fill="#EEEEEE" style="stroke:#000000;stroke-width:1.5;"/><rect fill="none" height="378.5313" style="stroke:#000000;stroke-width:1.5;" width="1206.3887" x="591" y="322.3906"/><text fill="#000000" font-family="sans-serif" font-size="13" font-weight="bold" lengthAdjust="spacing" textLength="19.4429" x="606" y="335.4575">alt</text><text fill="#000000" font-family="sans-serif" font-size="11" font-weight="bold" lengthAdjust="spacing" textLength="248.0801" x="670.4429" y="334.6011">[user key or server credentials present]</text><polygon fill="#181818" points="1252.4321,356.6563,1262.4321,360.6563,1252.4321,364.6563,1256.4321,360.6563" style="stroke:#181818;stroke-width:1.0;"/><line style="stroke:#181818;stroke-width:1.0;" x1="950.1929" x2="1258.4321" y1="360.6563" y2="360.6563"/><text fill="#000000" font-family="sans-serif" font-size="13" font-weight="bold" lengthAdjust="spacing" textLength="9.0454" x="1032.835" y="355.5903">6</text><text fill="#000000" font-family="sans-serif" font-size="13" lengthAdjust="spacing" textLength="135.9097" x="1045.8804" y="355.5903">decrypt per-user key</text><polygon fill="#181818" points="961.1929,385.7891,951.1929,389.7891,961.1929,393.7891,957.1929,389.7891" style="stroke:#181818;stroke-width:1.0;"/><line style="stroke:#181818;stroke-width:1.0;stroke-dasharray:2.0,2.0;" x1="955.1929" x2="1263.4321" y1="389.7891" y2="389.7891"/><text fill="#000000" font-family="sans-serif" font-size="13" font-weight="bold" lengthAdjust="spacing" textLength="9.0454" x="1089.1799" y="384.7231">7</text><text fill="#000000" font-family="sans-serif" font-size="13" lengthAdjust="spacing" textLength="23.2197" x="1102.2253" y="384.7231">key</text><polygon fill="#181818" points="1366.5435,414.9219,1376.5435,418.9219,1366.5435,422.9219,1370.5435,418.9219" style="stroke:#181818;stroke-width:1.0;"/><line style="stroke:#181818;stroke-width:1.0;" x1="950.1929" x2="1372.5435" y1="418.9219" y2="418.9219"/><text fill="#000000" font-family="sans-serif" font-size="13" font-weight="bold" lengthAdjust="spacing" textLength="9.0454" x="1099.5454" y="413.856">8</text><text fill="#000000" font-family="sans-serif" font-size="13" lengthAdjust="spacing" textLength="116.6001" x="1112.5908" y="413.856">generate(prompt)</text><polygon fill="#181818" points="961.1929,444.0547,951.1929,448.0547,961.1929,452.0547,957.1929,448.0547" style="stroke:#181818;stroke-width:1.0;"/><line style="stroke:#181818;stroke-width:1.0;stroke-dasharray:2.0,2.0;" x1="955.1929" x2="1377.5435" y1="448.0547" y2="448.0547"/><text fill="#000000" font-family="sans-serif" font-size="13" font-weight="bold" lengthAdjust="spacing" textLength="9.0454" x="1127.3577" y="442.9888">9</text><text fill="#000000" font-family="sans-serif" font-size="13" lengthAdjust="spacing" textLength="60.9756" x="1140.4031" y="442.9888">raw reply</text><line style="stroke:#181818;stroke-width:1.0;" x1="950.1929" x2="992.1929" y1="477.1875" y2="477.1875"/><line style="stroke:#181818;stroke-width:1.0;" x1="992.1929" x2="992.1929" y1="477.1875" y2="490.1875"/><line style="stroke:#181818;stroke-width:1.0;" x1="951.1929" x2="992.1929" y1="490.1875" y2="490.1875"/><polygon fill="#181818" points="961.1929,486.1875,951.1929,490.1875,961.1929,494.1875,957.1929,490.1875" style="stroke:#181818;stroke-width:1.0;"/><text fill="#000000" font-family="sans-serif" font-size="13" font-weight="bold" lengthAdjust="spacing" textLength="18.0908" x="957.1929" y="472.1216">10</text><text fill="#000000" font-family="sans-serif" font-size="13" lengthAdjust="spacing" textLength="241.1729" x="979.2837" y="472.1216">parseReply&lt;T&gt;() &#8212; schema validate</text><polygon fill="#181818" points="1599.5479,515.3203,1609.5479,519.3203,1599.5479,523.3203,1603.5479,519.3203" style="stroke:#181818;stroke-width:1.0;"/><line style="stroke:#181818;stroke-width:1.0;" x1="950.1929" x2="1605.5479" y1="519.3203" y2="519.3203"/><text fill="#000000" font-family="sans-serif" font-size="13" font-weight="bold" lengthAdjust="spacing" textLength="18.0908" x="1171.9504" y="514.2544">11</text><text fill="#000000" font-family="sans-serif" font-size="13" lengthAdjust="spacing" textLength="195.749" x="1194.0413" y="514.2544">record(requests, tokens, cost)</text><path d="M1616,532.3203 L1616,572.3203 L1787,572.3203 L1787,542.3203 L1777,532.3203 L1616,532.3203 " fill="#FEFFDD" style="stroke:#181818;stroke-width:0.5;"/><path d="M1777,532.3203 L1777,542.3203 L1787,542.3203 L1777,532.3203 " fill="#FEFFDD" style="stroke:#181818;stroke-width:0.5;"/><text fill="#000000" font-family="sans-serif" font-size="13" lengthAdjust="spacing" textLength="150.3887" x="1622" y="549.3872">metering never blocks;</text><text fill="#000000" font-family="sans-serif" font-size="13" lengthAdjust="spacing" textLength="145.1265" x="1622" y="564.52">failures are swallowed</text><polygon fill="#181818" points="725.0806,594.7188,715.0806,598.7188,725.0806,602.7188,721.0806,598.7188" style="stroke:#181818;stroke-width:1.0;"/><line style="stroke:#181818;stroke-width:1.0;stroke-dasharray:2.0,2.0;" x1="719.0806" x2="939.1929" y1="598.7188" y2="598.7188"/><text fill="#000000" font-family="sans-serif" font-size="13" font-weight="bold" lengthAdjust="spacing" textLength="18.0908" x="733.9431" y="593.6528">12</text><text fill="#000000" font-family="sans-serif" font-size="13" lengthAdjust="spacing" textLength="164.2964" x="756.0339" y="593.6528">{ data, provider, usage }</text><line style="stroke:#000000;stroke-width:1.0;stroke-dasharray:2.0,2.0;" x1="591" x2="1797.3887" y1="607.7188" y2="607.7188"/><text fill="#000000" font-family="sans-serif" font-size="11" font-weight="bold" lengthAdjust="spacing" textLength="182.0908" x="596" y="617.9292">[no key AND no server creds]</text><polygon fill="#181818" points="725.0806,638.6563,715.0806,642.6563,725.0806,646.6563,721.0806,642.6563" style="stroke:#181818;stroke-width:1.0;"/><line style="stroke:#181818;stroke-width:1.0;stroke-dasharray:2.0,2.0;" x1="719.0806" x2="939.1929" y1="642.6563" y2="642.6563"/><text fill="#000000" font-family="sans-serif" font-size="13" font-weight="bold" lengthAdjust="spacing" textLength="18.0908" x="744.1565" y="637.5903">13</text><text fill="#000000" font-family="sans-serif" font-size="13" lengthAdjust="spacing" textLength="143.8696" x="766.2473" y="637.5903">null  (signal: fall back)</text><path d="M601,655.6563 L601,695.6563 L815,695.6563 L815,665.6563 L805,655.6563 L601,655.6563 " fill="#FEFFDD" style="stroke:#181818;stroke-width:0.5;"/><path d="M805,655.6563 L805,665.6563 L815,665.6563 L805,655.6563 " fill="#FEFFDD" style="stroke:#181818;stroke-width:0.5;"/><text fill="#000000" font-family="sans-serif" font-size="13" lengthAdjust="spacing" textLength="193.5908" x="607" y="672.7231">deterministic template result,</text><text fill="#000000" font-family="sans-serif" font-size="13" lengthAdjust="spacing" textLength="192.5435" x="607" y="687.856">provider = "Template &#183; no AI"</text><polygon fill="#181818" points="1481.27,725.0547,1491.27,729.0547,1481.27,733.0547,1485.27,729.0547" style="stroke:#181818;stroke-width:1.0;"/><line style="stroke:#181818;stroke-width:1.0;" x1="714.0806" x2="1487.27" y1="729.0547" y2="729.0547"/><text fill="#000000" font-family="sans-serif" font-size="13" font-weight="bold" lengthAdjust="spacing" textLength="18.0908" x="969.6948" y="723.9888">14</text><text fill="#000000" font-family="sans-serif" font-size="13" lengthAdjust="spacing" textLength="245.8701" x="991.7856" y="723.9888">checkGrounding(text, CV + mandate)</text><polygon fill="#181818" points="725.0806,754.1875,715.0806,758.1875,725.0806,762.1875,721.0806,758.1875" style="stroke:#181818;stroke-width:1.0;"/><line style="stroke:#181818;stroke-width:1.0;stroke-dasharray:2.0,2.0;" x1="719.0806" x2="1492.27" y1="758.1875" y2="758.1875"/><text fill="#000000" font-family="sans-serif" font-size="13" font-weight="bold" lengthAdjust="spacing" textLength="18.0908" x="996.6216" y="753.1216">15</text><text fill="#000000" font-family="sans-serif" font-size="13" lengthAdjust="spacing" textLength="192.0166" x="1018.7124" y="753.1216">{ supported, unsupported[] }</text><polygon fill="#181818" points="413.979,783.3203,403.979,787.3203,413.979,791.3203,409.979,787.3203" style="stroke:#181818;stroke-width:1.0;"/><line style="stroke:#181818;stroke-width:1.0;stroke-dasharray:2.0,2.0;" x1="407.979" x2="708.0806" y1="787.3203" y2="787.3203"/><text fill="#000000" font-family="sans-serif" font-size="13" font-weight="bold" lengthAdjust="spacing" textLength="18.0908" x="417.479" y="782.2544">16</text><text fill="#000000" font-family="sans-serif" font-size="13" lengthAdjust="spacing" textLength="255.0107" x="439.5698" y="782.2544">{ &#8230;pitch, provider, usage, grounding }</text><polygon fill="#181818" points="51.2075,827.5859,41.2075,831.5859,51.2075,835.5859,47.2075,831.5859" style="stroke:#181818;stroke-width:1.0;"/><line style="stroke:#181818;stroke-width:1.0;stroke-dasharray:2.0,2.0;" x1="45.2075" x2="396.979" y1="831.5859" y2="831.5859"/><text fill="#000000" font-family="sans-serif" font-size="13" font-weight="bold" lengthAdjust="spacing" textLength="18.0908" x="54.7075" y="818.9536">17</text><text fill="#000000" font-family="sans-serif" font-size="13" lengthAdjust="spacing" textLength="306.6807" x="76.7983" y="811.3872">200 &#8212; badge (AI&#183;provider&#183;tokens&#183;$ / Template)</text><text fill="#000000" font-family="sans-serif" font-size="13" lengthAdjust="spacing" textLength="304.2051" x="78.0361" y="826.52">+ "nicht belegte Angaben" if unsupported &#8800; &#8709;</text><!--SRC=[RLJDZjCm4BxdAKOLGgdetx8NjFn8rQ95ArWMjGiNbeDhJrEhZXrifwMiaBY0u8fu04wymjxtKVP963jDcWAdE9blnfFl-sQyz0fXV0ePQhJCIwDXBVq2CcjABQJEUb1Oiv82BLXqHfK1quCvKsh6-1BkGeuUBI4XFPdq3qV3muFXuODkahYbr0MpB0UtOCAi0uJI7BOZ-Bv4pV4CdMCPZfNCD73KL35XfJUwp6TqJ1Ztni84kIrbY56sbrmMJ7le71ljhL4ARGUOWsDlrJw0_c-Ep9SMwKAxaXmlTOg3R03dfRV8-68ifrMW6qjCLto_mWkLdrGL9gNMsukgurzN5V8vRgRKRRZ3KSFe-nHSeArAKzJzKtjQTtNxzKV3TuHJS1_T24FbXScP934Awgkg_Yn6zpDU1sRFWaWH4az9qd09_IUHCZY2L-VJ2nXwfaW0DpoIOYWCB_FuLaZF5q47kM8UAv9ZsYxzen7z5LDI1C3CY4q383uf7akS67l6T82aWy6WkwiOE4y2aF0LivHYIvrkfOj6p0lV0ySNcBDMwbQ8RTPUVh3i2bzjAKsxnDfhyi10gRp-2EEda_veT73G0oHtWi0vAvKd1pFbeIGqB743vBzW7deZJGLn8idBr1CwEYS0kzk3n7It88OtXOS2RR-kGhWOxRURhBxlyabp-hgTI4oht-uI90JsCYrRqoyMQZ-_2PCD74v2_D75axGBjvz_Ric3MgUzn6YDo1etLgGs3AVphWVUB57JaniN6z66MBSoMtWmyoQjMGGQ0qqpPVZIFRpKSoOL2UY0XG5Sq-OmQnIjcnk7N07rn7OhfqVqatdXKnALqIOgCNxvD1nRQhZ_5TEbKW2fevN2r57SM11MLlC39gHNM15QpwMMZkO6FEQ52iQYfia9lKlTxC37qBceepVNeOtnQIT1cZc1V_knTdCrb7GBKS-Np-e1JZr-83SVlu5xa5SZqKsss3ObhYmAOpqAOaCtBs_V4IlnWjq0Nf72l-EK_KDXRxVHAQ_LQnYxQao3SvgbS0JtHwDec1aJf40wFhsvhclUN5U6kBc-0qEe-Q3PkWSTBJcvOeOACwe-rXcReUw0dBURXzlll-3ssvTs8t6Z_040]--></g></svg>